<svg xmlns="http://www.w3.org/2000/svg" enable-background="new 0 0 850 850" viewBox="0 0 850 850"><path fill="#95bcf4" d="M599.92,501.24H352.48V162.49h247.43V501.24z M361.76,491.97h228.87V171.77H361.76V491.97z"/><rect width="228.87" height="320.19" x="361.76" y="171.77" fill="#faffff"/><rect width="228.87" height="320.19" x="361.76" y="171.77" fill="none"/><path fill="#c0f9ef" d="M563.24,270.93h-33.54v-33.48h33.54V270.93z M531.45,269.18h30.03v-29.97h-30.03V269.18z"/><rect width="30.03" height="29.97" x="531.45" y="239.21" fill="#c0f9ef"/><path fill="#b6d2ff" d="M547.14,263.66l-11.72-13.8c-0.63-0.74-0.54-1.85,0.2-2.47c0.74-0.63,1.85-0.53,2.48,0.2l8.63,10.17
						l16.44-25.85c0.52-0.82,1.61-1.06,2.42-0.54c0.82,0.52,1.06,1.6,0.54,2.42L547.14,263.66z"/><rect width="115.11" height="3.13" x="383.65" y="245.43" fill="#c0f9ef"/><rect width="115.11" height="3.13" x="383.65" y="253.05" fill="#c0f9ef"/><rect width="103.7" height="3.13" x="383.65" y="260.67" fill="#c0f9ef"/><path fill="#c0f9ef" d="M565.18,325.99h-33.54v-33.48h33.54V325.99z M533.39,324.24h30.03v-29.97h-30.03V324.24z"/><rect width="30.03" height="29.97" x="533.39" y="294.27" fill="#c0f9ef"/><path fill="#b6d2ff" d="M549.08,318.72l-11.72-13.8c-0.63-0.74-0.54-1.85,0.2-2.47c0.74-0.63,1.85-0.53,2.48,0.2l8.63,10.17
						l16.44-25.85c0.52-0.82,1.61-1.06,2.42-0.54c0.82,0.52,1.06,1.6,0.54,2.42L549.08,318.72z"/><rect width="115.11" height="3.13" x="383.65" y="300.07" fill="#c0f9ef"/><rect width="115.11" height="3.13" x="383.65" y="307.69" fill="#c0f9ef"/><rect width="103.7" height="3.13" x="383.65" y="315.31" fill="#c0f9ef"/><g><path fill="#c0f9ef" d="M565.18,381.06h-33.54v-33.48h33.54V381.06z M533.39,379.3h30.03v-29.97h-30.03V379.3z"/><path fill="#b6d2ff" d="M549.08,373.78l-11.72-13.8c-0.63-0.74-0.54-1.85,0.2-2.47c0.74-0.63,1.85-0.53,2.48,0.2l8.63,10.17
						l16.44-25.85c0.52-0.82,1.61-1.06,2.42-0.54c0.82,0.52,1.06,1.6,0.54,2.42L549.08,373.78z"/></g><g><rect width="115.11" height="3.13" x="383.65" y="355.55" fill="#c0f9ef"/><rect width="115.11" height="3.13" x="383.65" y="363.17" fill="#c0f9ef"/><rect width="103.7" height="3.13" x="383.65" y="370.79" fill="#c0f9ef"/></g><g><path fill="#c0f9ef" d="M565.18,436.12h-33.54v-33.48h33.54V436.12z M533.39,434.36h30.03v-29.97h-30.03V434.36z"/><path fill="#b6d2ff" d="M549.08,428.84l-11.72-13.8c-0.63-0.74-0.54-1.85,0.2-2.47c0.74-0.63,1.85-0.53,2.48,0.2l8.63,10.17
						l16.44-25.85c0.52-0.82,1.61-1.06,2.42-0.54c0.82,0.52,1.06,1.6,0.54,2.42L549.08,428.84z"/></g><g><rect width="115.11" height="3.13" x="383.65" y="410.19" fill="#c0f9ef"/><rect width="115.11" height="3.13" x="383.65" y="417.81" fill="#c0f9ef"/><rect width="103.7" height="3.13" x="383.65" y="425.44" fill="#c0f9ef"/></g><g><rect width="46.02" height="1.83" x="383.65" y="455.85" fill="#c0ddff"/><rect width="46.02" height="1.83" x="383.65" y="460.31" fill="#c0ddff"/><rect width="41.45" height="1.83" x="383.65" y="464.77" fill="#c0ddff"/></g><g><path fill="#95bcf4" d="M500.5,183.06h-48.6c-7.79,0-14.1-6.31-14.1-14.1v-6.46h76.81v6.46C514.6,176.75,508.29,183.06,500.5,183.06
				z"/></g><g><rect width="125.67" height="1.37" x="411.85" y="224.9" fill="#9ce8d9"/></g><g><rect width="3.1" height="17.66" x="411.85" y="205.34" fill="#c0f9ef"/><path fill="#c0f9ef" d="M429.06,212.79c0,1.79,0.02,3.39,0.12,5.03c-0.66-1.21-1.41-2.46-2.27-3.77l-5.73-8.71h-3.12V223h2.97v-7.6
					c0-2.05-0.03-3.68-0.09-5.22c0.66,1.2,1.47,2.54,2.48,4.09l5.68,8.74h2.94v-17.66h-2.97V212.79z"/><path fill="#c0f9ef" d="M440.95,212.66c-2.43-0.91-3.21-1.6-3.21-2.87c0-0.98,0.75-2.12,2.87-2.12c1.4,0,2.47,0.41,3.12,0.75
					l0.44,0.23l0.9-2.55l-0.3-0.17c-0.6-0.33-1.93-0.88-4.08-0.88c-3.58,0-6.08,2.05-6.08,4.98c0,2.38,1.56,4.01,4.89,5.15
					c2.23,0.83,3.03,1.6,3.03,2.97c0,1.52-1.24,2.47-3.24,2.47c-1.3,0-2.73-0.39-3.83-1.04l-0.47-0.28l-0.82,2.62l0.26,0.17
					c1.05,0.67,2.98,1.14,4.7,1.14c4.83,0,6.55-2.83,6.55-5.25C445.69,215.49,444.27,213.9,440.95,212.66z"/><path fill="#c0f9ef" d="M458.52,215.72c0,3.3-1.29,4.97-3.84,4.97c-2.36,0-3.65-1.76-3.65-4.97v-10.38h-3.13v10.33
					c0,6.62,4.2,7.6,6.7,7.6c4.48,0,7.04-2.81,7.04-7.7v-10.23h-3.13V215.72z"/><path fill="#c0f9ef" d="M475.61,217.88c-0.38-1.58-1.06-2.69-2.05-3.32c1.76-0.85,2.79-2.44,2.79-4.36c0-1.43-0.54-2.67-1.51-3.5
						c-1.17-1.02-2.82-1.48-5.35-1.48c-1.63,0-3.28,0.13-4.42,0.36l-0.34,0.07V223h3.1v-7.3l1.69,0c1.85,0.07,2.63,0.81,3.11,2.96
						c0.58,2.47,0.93,3.67,1.21,4.14l0.12,0.2h3.29l-0.34-0.6C476.57,221.78,476.14,220.06,475.61,217.88z M473.24,210.44
						c0,1.72-1.35,2.79-3.52,2.79h-1.89v-5.41c0.39-0.06,1.01-0.12,1.81-0.12C471.28,207.72,473.24,208.21,473.24,210.44z"/><path fill="#c0f9ef" d="M483.56,205.34L477.33,223h3.23l1.82-5.3h5.6l1.87,5.3h3.31l-6.26-17.66H483.56z M487.22,215.19h-4.09
						l1.53-4.34c0.17-0.52,0.34-1.06,0.51-1.66c0.15,0.54,0.33,1.1,0.53,1.69L487.22,215.19z"/><path fill="#c0f9ef" d="M505.72,212.79c0,1.79,0.02,3.39,0.12,5.03c-0.66-1.21-1.41-2.46-2.27-3.77l-5.73-8.71h-3.12V223h2.97v-7.6
					c0-2.05-0.03-3.68-0.09-5.22c0.66,1.2,1.47,2.54,2.48,4.09l5.68,8.74h2.94v-17.66h-2.97V212.79z"/><path fill="#c0f9ef" d="M520.39,207.7c1.25,0,2.44,0.23,3.35,0.66l0.45,0.21l0.78-2.55l-0.31-0.15c-0.37-0.19-1.78-0.8-4.35-0.8
					c-2.78,0-5.17,0.89-6.9,2.57c-1.74,1.68-2.66,3.99-2.66,6.69c0,5.42,3.56,8.93,9.07,8.93c2.26,0,3.96-0.44,4.81-0.84l0.31-0.15
					l-0.68-2.52l-0.46,0.22c-0.87,0.41-2.21,0.66-3.5,0.66c-3.95,0-6.3-2.38-6.3-6.37C513.98,210.15,516.38,207.7,520.39,207.7z"/><polygon fill="#c0f9ef" points="529.95 220.36 529.95 215.1 536.75 215.1 536.75 212.49 529.95 212.49 529.95 207.98 537.14 207.98 537.14 205.34 526.85 205.34 526.85 223 537.53 223 537.53 220.36"/></g><g><rect width="50.06" height="51.19" x="109.21" y="333.16" fill="#b6d2ff"/><rect width="58.2" height="10.17" x="105.14" y="330.71" fill="#95bcf4"/><rect width="282.96" height="244.39" x="104.37" y="433.45" fill="#c0f9ef"/><polygon fill="#9ce8d9" points="389.66 514.77 371.81 514.77 119.9 514.77 102.04 514.77 83.67 595.34 119.9 595.34 371.81 595.34 408.04 595.34"/><polygon fill="#9ce8d9" points="389.66 362.11 371.81 362.11 119.9 362.11 102.04 362.11 83.67 442.68 119.9 442.68 371.81 442.68 408.04 442.68"/><rect width="36.01" height="45.61" x="155.79" y="455.37" fill="#95bcf4"/><rect width="31.56" height="39.51" x="158.01" y="458.28" fill="#95bcf4"/><rect width="29.72" height="37.67" x="158.93" y="459.21" fill="#b6d2ff"/><rect width="1.2" height="41.04" x="173.2" y="457.52" fill="#7cade8"/><rect width="32.74" height="1.19" x="157.42" y="477.45" fill="#7cade8"/><rect width="38.09" height="4.83" x="154.66" y="498.57" fill="#7cade8"/><rect width="36.01" height="45.61" x="299.91" y="455.37" fill="#95bcf4"/><rect width="31.56" height="39.51" x="302.14" y="458.28" fill="#95bcf4"/><rect width="29.72" height="37.67" x="303.05" y="459.21" fill="#b6d2ff"/><rect width="1.2" height="41.04" x="317.32" y="457.52" fill="#7cade8"/><rect width="32.74" height="1.19" x="301.55" y="477.45" fill="#7cade8"/><rect width="38.09" height="4.83" x="298.96" y="498.57" fill="#7cade8"/><path fill="#c0f9ef" d="M168.18,595.34h155.35L245.86,518C245.86,518,185.06,579.12,168.18,595.34z"/><path fill="#b6d2ff" d="M247.72,527.49l-1.87-1.97l-1.87,1.97l-62.92,66.29h7.6v84.05h10.67v-50.91c0-13.95,11.3-25.25,25.25-25.25
				h43.65c13.94,0,25.25,11.3,25.25,25.25v50.91h9.55v-84.05h7.6L247.72,527.49z"/><path fill="#9ce8d9" d="M268.23,601.68h-43.65c-13.95,0-25.25,11.3-25.25,25.25v50.91h94.15v-50.91
				C293.48,612.98,282.18,601.68,268.23,601.68z"/><path fill="#c0f9ef" d="M266.41,608.06h-39.99c-12.78,0-23.13,10.35-23.13,23.13v46.64h86.26v-46.64
				C289.54,618.42,279.18,608.06,266.41,608.06z"/><rect width="49.57" height="66.52" x="221.07" y="610.98" fill="#9ce8d9"/><rect width="44.35" height="64.16" x="223.66" y="613.34" fill="#c0ddff"/><rect width="28.54" height="15.54" x="232.01" y="619.3" fill="#9ce8d9"/><rect width="26.85" height="13.86" x="232.85" y="620.06" fill="#c0f9ef"/><rect width="28.54" height="15.53" x="232.01" y="639.08" fill="#9ce8d9"/><g><rect width="26.85" height="13.86" x="232.85" y="639.84" fill="#c0f9ef"/></g><g><rect width="28.54" height="15.54" x="232.01" y="658.86" fill="#9ce8d9"/></g><g><rect width="26.85" height="13.86" x="232.85" y="659.61" fill="#c0f9ef"/></g><g><path fill="#9ce8d9" d="M228.9,647.72c0,1.12-0.9,2.02-2.02,2.02c-1.11,0-2.01-0.9-2.01-2.02c0-1.11,0.9-2.02,2.01-2.02
				C228,645.7,228.9,646.61,228.9,647.72z"/></g><g><path fill="#c0ddff" d="M227.77,647.72c0,0.48-0.4,0.88-0.88,0.88c-0.48,0-0.87-0.4-0.87-0.88c0-0.48,0.39-0.87,0.87-0.87
				C227.37,646.85,227.77,647.24,227.77,647.72z"/></g><g><path fill="#c0ddff" d="M313.32,600.29l-67.66-70.71l-68.46,70.1c2.24,2.13,5.81,2.05,7.94-0.21l60.71-63.97l60.71,63.97
				c1.1,1.16,2.59,1.75,4.08,1.75c0.97,0,1.93-0.27,2.79-0.76L313.32,600.29z"/></g><g><rect width="57.51" height="3.53" x="217.1" y="674.35" fill="#9ce8d9"/></g><g><rect width="316.25" height="8.29" x="86.15" y="677.69" fill="#7cade8"/></g><g><rect width="36.01" height="45.61" x="123.03" y="613.63" fill="#7cade8"/><rect width="31.56" height="39.51" x="125.26" y="616.54" fill="#7cade8"/><rect width="29.72" height="37.67" x="126.17" y="617.46" fill="#b6d2ff"/><rect width="1.2" height="41.04" x="140.44" y="615.78" fill="#7cade8"/><rect width="32.74" height="1.19" x="124.67" y="635.7" fill="#7cade8"/><rect width="38.09" height="4.83" x="121.9" y="656.82" fill="#7cade8"/></g><g><rect width="36.01" height="45.61" x="332.67" y="613.63" fill="#7cade8"/><rect width="31.56" height="39.51" x="334.9" y="616.54" fill="#7cade8"/><rect width="29.72" height="37.67" x="335.81" y="617.46" fill="#b6d2ff"/><rect width="1.2" height="41.04" x="350.08" y="615.78" fill="#7cade8"/><rect width="32.74" height="1.19" x="334.3" y="635.7" fill="#7cade8"/><rect width="38.09" height="4.83" x="331.72" y="656.82" fill="#7cade8"/></g></g><g><path fill="#9ce8d9" d="M486.58,623.64c0.07,9.51-7.58,17.29-17.1,17.36c-9.51,0.07-17.29-7.58-17.36-17.1
						c-0.07-9.51,7.58-17.29,17.1-17.36C478.73,606.48,486.5,614.13,486.58,623.64z"/><path fill="#c0f9ef" d="M483.46,623.67c0.06,7.8-6.21,14.16-14.01,14.22c-7.79,0.06-14.16-6.21-14.22-14.01
						c-0.06-7.8,6.21-14.16,14.01-14.22C477.04,609.6,483.4,615.87,483.46,623.67z"/><path fill="#9ce8d9" d="M471.35,613.17v2.37c0.52,0.25,0.98,0.62,1.28,1.12l0.18-1.28h3.33v5.34h-3.52c0-1.6-1.1-2.53-2.53-2.53
							c-0.57,0-1.35,0.39-1.35,1.16c0,2.24,7.69,1.73,7.69,6.83c0,3.33-2.74,4.38-5.09,4.43v2.35h-3.22v-2.99
							c-0.41-0.23-0.8-0.5-1.19-0.85l-0.25,1.37h-3.33v-5.5h3.58c0,1.83,1.9,2.14,2.76,2.19c0.66,0,1.67-0.18,1.67-1.12
							c0-1.69-7.42-1.39-7.42-6.51c0-3.04,2.28-4.34,4.18-4.47v-1.92H471.35z"/><rect width="1.12" height="23.6" x="460.8" y="573.11" fill="#c0f9ef"/><g><rect width="1.12" height="23.6" x="478.28" y="573.11" fill="#c0f9ef"/></g><g><rect width="1.12" height="23.6" x="468.79" y="579.6" fill="#c0f9ef"/></g><g><rect width="76.42" height="10.95" x="437.89" y="673.13" fill="#b6d2ff"/><rect width="2.57" height="10.95" x="452.66" y="673.13" fill="#95bcf4"/><rect width="2.57" height="10.95" x="463.74" y="673.13" fill="#95bcf4"/><rect width="2.57" height="10.95" x="474.81" y="673.13" fill="#95bcf4"/><rect width="2.57" height="10.95" x="485.88" y="673.13" fill="#95bcf4"/><rect width="2.57" height="10.95" x="496.96" y="673.13" fill="#95bcf4"/><rect width="2.57" height="10.95" x="441.59" y="673.13" fill="#95bcf4"/><rect width="2.57" height="10.95" x="508.03" y="673.13" fill="#95bcf4"/><rect width="76.42" height="10.95" x="437.89" y="651.23" fill="#b6d2ff"/><rect width="2.57" height="10.95" x="452.66" y="651.23" fill="#95bcf4"/><rect width="2.57" height="10.95" x="463.74" y="651.23" fill="#95bcf4"/><rect width="2.57" height="10.95" x="474.81" y="651.23" fill="#95bcf4"/><rect width="2.57" height="10.95" x="485.88" y="651.23" fill="#95bcf4"/><rect width="2.57" height="10.95" x="496.96" y="651.23" fill="#95bcf4"/><rect width="2.57" height="10.95" x="441.59" y="651.23" fill="#95bcf4"/><rect width="2.57" height="10.95" x="508.03" y="651.23" fill="#95bcf4"/><rect width="76.42" height="10.95" x="437.89" y="662.18" fill="#b6d2ff"/><rect width="2.57" height="10.95" x="458.43" y="662.18" fill="#95bcf4"/><rect width="2.57" height="10.95" x="469.35" y="662.18" fill="#95bcf4"/><rect width="2.57" height="10.95" x="480.27" y="662.18" fill="#95bcf4"/><rect width="2.57" height="10.95" x="491.19" y="662.18" fill="#95bcf4"/><rect width="2.57" height="10.95" x="502.1" y="662.18" fill="#95bcf4"/><rect width="2.57" height="10.95" x="447.52" y="662.18" fill="#95bcf4"/><rect width="1.29" height="10.95" x="513.02" y="662.18" fill="#95bcf4"/><rect width="1.29" height="10.95" x="437.89" y="662.18" fill="#95bcf4"/></g><g><rect width="76.42" height="10.95" x="513.82" y="673.13" fill="#b6d2ff"/><rect width="2.57" height="10.95" x="528.6" y="673.13" fill="#95bcf4"/><rect width="2.57" height="10.95" x="539.67" y="673.13" fill="#95bcf4"/><rect width="2.57" height="10.95" x="550.75" y="673.13" fill="#95bcf4"/><rect width="2.57" height="10.95" x="561.82" y="673.13" fill="#95bcf4"/><rect width="2.57" height="10.95" x="572.9" y="673.13" fill="#95bcf4"/><rect width="2.57" height="10.95" x="517.53" y="673.13" fill="#95bcf4"/><rect width="2.57" height="10.95" x="583.97" y="673.13" fill="#95bcf4"/><rect width="76.42" height="10.95" x="513.82" y="651.23" fill="#b6d2ff"/><rect width="2.57" height="10.95" x="528.6" y="651.23" fill="#95bcf4"/><rect width="2.57" height="10.95" x="539.67" y="651.23" fill="#95bcf4"/><rect width="2.57" height="10.95" x="550.75" y="651.23" fill="#95bcf4"/><rect width="2.57" height="10.95" x="561.82" y="651.23" fill="#95bcf4"/><rect width="2.57" height="10.95" x="572.9" y="651.23" fill="#95bcf4"/><rect width="2.57" height="10.95" x="517.53" y="651.23" fill="#95bcf4"/><rect width="2.57" height="10.95" x="583.97" y="651.23" fill="#95bcf4"/><rect width="76.42" height="10.95" x="513.82" y="662.18" fill="#b6d2ff"/><rect width="2.57" height="10.95" x="534.37" y="662.18" fill="#95bcf4"/><rect width="2.57" height="10.95" x="545.29" y="662.18" fill="#95bcf4"/><rect width="2.57" height="10.95" x="556.21" y="662.18" fill="#95bcf4"/><rect width="2.57" height="10.95" x="567.12" y="662.18" fill="#95bcf4"/><rect width="2.57" height="10.95" x="578.04" y="662.18" fill="#95bcf4"/><rect width="2.57" height="10.95" x="523.45" y="662.18" fill="#95bcf4"/><rect width="1.29" height="10.95" x="588.96" y="662.18" fill="#95bcf4"/><rect width="1.29" height="10.95" x="513.82" y="662.18" fill="#95bcf4"/></g><g><rect width="76.42" height="10.95" x="496.16" y="640.28" fill="#b6d2ff"/><rect width="2.57" height="10.95" x="510.93" y="640.28" fill="#95bcf4"/><rect width="2.57" height="10.95" x="522.01" y="640.28" fill="#95bcf4"/><rect width="2.57" height="10.95" x="533.08" y="640.28" fill="#95bcf4"/><rect width="2.57" height="10.95" x="544.15" y="640.28" fill="#95bcf4"/><rect width="2.57" height="10.95" x="555.23" y="640.28" fill="#95bcf4"/><rect width="2.57" height="10.95" x="499.86" y="640.28" fill="#95bcf4"/><rect width="2.57" height="10.95" x="566.3" y="640.28" fill="#95bcf4"/><rect width="76.42" height="10.95" x="496.16" y="618.37" fill="#b6d2ff"/><rect width="2.57" height="10.95" x="510.93" y="618.37" fill="#95bcf4"/><rect width="2.57" height="10.95" x="522.01" y="618.37" fill="#95bcf4"/><rect width="2.57" height="10.95" x="533.08" y="618.37" fill="#95bcf4"/><rect width="2.57" height="10.95" x="544.15" y="618.37" fill="#95bcf4"/><rect width="2.57" height="10.95" x="555.23" y="618.37" fill="#95bcf4"/><rect width="2.57" height="10.95" x="499.86" y="618.37" fill="#95bcf4"/><rect width="2.57" height="10.95" x="566.3" y="618.37" fill="#95bcf4"/><rect width="76.42" height="10.95" x="496.16" y="629.32" fill="#b6d2ff"/><rect width="2.57" height="10.95" x="516.7" y="629.32" fill="#95bcf4"/><rect width="2.57" height="10.95" x="527.62" y="629.32" fill="#95bcf4"/><rect width="2.57" height="10.95" x="538.54" y="629.32" fill="#95bcf4"/><rect width="2.57" height="10.95" x="549.46" y="629.32" fill="#95bcf4"/><rect width="2.57" height="10.95" x="560.38" y="629.32" fill="#95bcf4"/><rect width="2.57" height="10.95" x="505.79" y="629.32" fill="#95bcf4"/><rect width="1.29" height="10.95" x="571.29" y="629.32" fill="#95bcf4"/><rect width="1.29" height="10.95" x="496.16" y="629.32" fill="#95bcf4"/></g></g><g><path fill="#d4145a" d="M645.7,302.02c-5.58,10.69-32.73,66.38-38.68,77.24c-5.45,9.95,30.79,19.59,35.71,7.66
				c4.92-11.93,12.39-34.62,12.39-34.62L645.7,302.02z"/><path fill="#fcc0a9" d="M717.95,652.51c0.69,5.32,1.09,13.66-0.11,16.91c-0.57,1.55,4.22,4.44,9.83,4.81
				c4.31,0.29,8.25-3.74,7.41-7.14c-1.5-6.06,0-17.51,0-17.51C734.61,644.96,717.4,648.31,717.95,652.51z"/><path fill="#010705" d="M709.98,687.49l30.01,0.02c0.25-0.22-3.4-18.37-4.91-20.42c-2.85-3.85-16.68-2.12-17.29,0.26
				C715.29,677.27,709.32,682.96,709.98,687.49z"/><path fill="#fcc0a9" d="M646.86,652.6c0.48,5.35,0.85,11.53-1.82,14.52c-1.1,1.23,5.07,6.97,10.66,7.57
				c4.29,0.46,8.39-3.4,7.69-6.83c-1.26-6.11,0.7-17.5,0.7-17.5C663.81,645.72,646.48,648.37,646.86,652.6z"/><path fill="#fcc0a9" d="M572.42,339.57c-2.99-0.86-7.89,2.11-11.8,1.79c-4.52-0.37-4.41,0.09-6.67-0.34
				c-3.75-0.71-7.53,0.87-4.46,2.44c2.87,1.47,7.52,0.85,11.55,3.42c2.8,1.79,4.04,2.29,7.75,2.83c5.17,0.76,12.04-3.24,8.21-7.56
				C575.88,340.87,573.98,340.01,572.42,339.57z"/><path fill="#fcc0a9" d="M535.69,343.67c7.04,3.17,25.01,9,32.38,9.82c7.36,0.82,11.24,7.21,12.28,9.23c1.04,2.02,8.45-5.43,9.1-7.76
				s-9.49-9.58-10.41-10.28c-0.93-0.7-3.82-6.12-14.25-2.64c-6.02,2.01-17.09,1.89-22.91,0.34
				C537.22,341.15,531.32,341.7,535.69,343.67z"/><path fill="#010705" d="M617.26,687.5h49.35c0.26-0.21-0.7-20.03-3.21-19.65c-1.4,0.22-2.34,3.58-3.68,5.14
				c-1.34,1.57-7.5-0.65-7.78-2.51c-0.27-1.86-6.38-6.63-7.38-4.66c-2.93,5.79-23.01,13.24-25.45,14.58
				C616.22,681.98,617.17,686.83,617.26,687.5z"/><path fill="#498851" d="M669.75,443.37c22.6,0.09,54.53-151.27,42.2-155.22c-0.72-0.23-17.76-7.37-17.76-7.37s-25.11,9.26-26.29,9.7
				c-7.86,2.89-16.34,28.43-13.99,46.1C656.25,354.24,654.75,443.3,669.75,443.37z"/><path fill="#262d62" d="M652.9,427c0,0-5.98,71.78-6.74,96.63c-0.76,24.86-3.29,131.16-3.37,134.92
				c-0.05,2.39,23.57,6.18,23.85,3.87c0.28-2.3,17.66-101.31,18.52-123.88c0.87-22.57,20.96-110.62,20.96-110.62L652.9,427z"/><path fill="#262d62" d="M678.52,423.42c0,15.64,14.06,105.31,19.02,125.53c4.96,20.22,17.1,106.85,17.44,110.65
				c0.15,1.72,23.15,1.63,23.44-1.76c0.42-4.96,1.9-87.56-2.3-117.31c-4.2-29.75-11.82-122.06-11.82-122.06L678.52,423.42z"/><path fill="#d4145a" d="M752.01,380.65c-0.92,14.28-6.39,23.19-12.8,25.5c-0.8,0.01-1.6,0.01-2.41-0.02h-0.01
				c-4.59-2.86-8.06-22.91-10.11-38.62c-1.39-10.62-2.12-19.26-2.12-19.26l12.47-51.69C742.91,305.48,752.29,376.41,752.01,380.65z"/><path fill="#fcc0a9" d="M701.46,261.9c-1.5,9.38-1.75,20.33-0.44,23.43c1.31,3.1-21.22,7.91-24.92,4.18l0.95-25.25L701.46,261.9z"/><path fill="#fc9a73" d="M695.48,270.13c-4.11,7.41-9.67,11.46-19.1,12.27l0.56-14.86L695.48,270.13z"/><path fill="#fcc0a9" d="M673.04,236.24c-4.67,11.22-4.94,29.05-0.48,35.67c4.47,6.63,22.49,0.05,25.85-5.18
				c3.36-5.24,15.82-30.3,2.94-34.99S678.01,224.29,673.04,236.24z"/><path fill="#010705" d="M699.85,260.19c-1.16-1.37-2.55-0.98-1.49-7.32c1.06-6.34,4.1-10.57-1.72-9.61
				c-9.45,1.56-11.13-7.39-17.16-7.89c-6.61-0.55-10.41-2.48-9.62-7.63c1.11-7.14,7.54-12.29,21.42-10.51
				c6.68,0.86,19.07,9.98,21.96,16.89c4.41,10.52-5.43,23.53-7.45,27.8C703.77,266.17,699.85,260.19,699.85,260.19z"/><path fill="#d4145a" d="M636.57,592.37c-0.2,1.32,10.47-0.07,25.48,0c0,0,12.01-242.43,12.36-243.95l-4.3-58.9
				c-0.3,0.21-23.86,9.09-24.57,12.92c-1.12,6.1,2.06,24.92,2.09,42.76C647.68,368.58,637.03,589.09,636.57,592.37z"/><path fill="#fcc0a9" d="M700.95,255.45c3.16-3.58,6.33-2.78,6.81-1.54c0.49,1.24,0.74,3.98-1.97,8c-2.71,4.02-5.84,6.14-6.61,5.48
				c-0.77-0.66-1.11-3.6-0.54-5.58C699.2,259.82,700.17,256.34,700.95,255.45z"/><path fill="#d4145a" d="M674.4,348.42v243.36c22.59,0.1,73.6,0.52,73.6,0.52s-12.82-214.99-14.67-229.25
				c-1.4-10.8,5.35-63.2,3.71-66.48c-0.77-1.57-34.39-12.18-34.55-12.33l-2.18,4.57L674.4,348.42z"/><path fill="#82acb0" d="M650.51,405.85c-12.3,26.42-24.89,54.42-34.36,77.63l13.03,6.45c16.22-27.65,29.14-51.01,41.31-74.21
				c14.64-27.94,28.2-55.62,45.07-90.22l50.16-101.45l-21.35-10.54l-50.16,101.45C694.21,314.96,672.84,357.84,650.51,405.85z"/><path fill="#b6d2ff" d="M650.51,405.85c-12.3,26.42-24.89,54.42-34.36,77.63l13.03,6.45c16.22-27.65,29.14-51.01,41.31-74.21
				c14.64-27.94,28.2-55.62,45.07-90.22l50.16-101.45l-21.35-10.54l-50.16,101.45C694.21,314.96,672.84,357.84,650.51,405.85z"/><path fill="#c0f9ef" d="M696.57,311.68l20.16,9.97c1.08,0.53,2.38,0.09,2.91-0.98l46.46-93.99c0.53-1.08,0.09-2.38-0.98-2.91
				l-20.16-9.97c-1.08-0.53-2.38-0.09-2.91,0.98l-46.46,93.99C695.06,309.84,695.5,311.15,696.57,311.68z"/><path fill="#9ce8d9" d="M722.07,338.71c2.61,1.29,5.68,0.48,7.22-1.92l-2.73-1.75c-0.75,1.18-2.16,1.26-3.14,0.73
				c-1.6-0.85-2.7-3.58-0.57-8.47c3.11-7.13,13.98-22.49,20.48-31.66c3.35-4.74,4.98-7.05,5.38-7.85
				c1.22-2.46,15.65-55.45,17.56-61.6l-0.65-2.07c-7.42,23.9-18.9,60.29-19.82,62.24c-0.3,0.61-2.64,3.91-5.12,7.41
				c-6.57,9.28-17.56,24.8-20.8,32.24c-3.02,6.91-0.8,11.12,2.01,12.62C721.96,338.65,722.02,338.68,722.07,338.71z"/><path fill="#b6d2ff" d="M729.56,335.96c0.89-1.8,0.15-3.99-1.65-4.88c-1.8-0.89-3.99-0.15-4.88,1.65c-0.89,1.8-0.15,3.99,1.65,4.88
				C726.49,338.51,728.67,337.77,729.56,335.96z"/><path fill="#b6d2ff" d="M617.38,497.27l0.21,0.1l-5.07,10.82c0.26,0.07,0.53,0.08,0.79,0.01c0.37-0.09,0.71-0.29,0.96-0.6
					c2.55-3.27,5.7-6.21,9.57-8.76c0.15-0.34,2.51-8.11,5.15-10.85l-11.08-5.47c-0.57,3.76-5.29,10.35-5.47,10.66
					c0.44,4.72-0.1,9.07-1.13,12.95c-0.17,0.65,0.07,1.34,0.58,1.75L617.38,497.27z M617.7,494.16c0.29-0.6,1.02-0.84,1.61-0.55
					c0.6,0.29,0.84,1.02,0.55,1.61c-0.29,0.6-1.02,0.84-1.61,0.55C617.65,495.48,617.4,494.75,617.7,494.16z"/><path fill="#c0f9ef" d="M638.9,426.66c-12.3,26.42-13.28,33.61-22.75,56.83l13.03,6.45c16.22-27.65,19.67-29.15,31.83-52.35
				L638.9,426.66z"/><path fill="#fcc0a9" d="M698.24,346.97c-3.37-4.97-4.53-17.76-9.1-19c-4.57-1.24-11.86,11.18-10.97,17.23
				c0.89,6.04,4.26,8.34,6.57,9.23c2.31,0.89,4.4,5.33,4.4,5.33L698.24,346.97z"/><path fill="#498851" d="M686.68,360.01c0.38,0.98,21.12,27.03,33.16,35.56c5.67,4.01,22.3-4.38,23.2-18.47
				c0,0-11.85-8.01-30.46-20.97c-5.1-3.55-10.04-7.21-14.34-10.76C695.93,343.46,685.65,357.34,686.68,360.01z"/><path fill="#d4145a" d="M707.55,402.39c0,0,23.99,4.88,31.92,3.66c6.29-2.45,11.62-11.3,12.53-25.39c0,0-20.81-11.56-39.42-24.52
				C707.08,365.62,707.55,402.39,707.55,402.39z"/><path fill="#498851" d="M572.25,357.9c0.63,1.32,11.08,13.49,23.5,24.7c11.95,10.77,23.96-17.04,21.3-18.66
				c-4.12-2.49-8.53-5.2-12.79-7.82c-10.16-6.23-19.36-11.87-21.08-12.31C580.27,343.09,571.02,355.33,572.25,357.9z"/><path fill="#d4145a" d="M594.97,395.62c0,0,22.55,9.65,35.84,5.9c0.07-0.01,0.15-0.04,0.24-0.06c1.32-0.39,2.55-0.93,3.65-1.61
				c0-0.01,0.01-0.01,0.01-0.01c0.01,0,0.01-0.01,0.02-0.01c5.57-3.8,7.19-12.31,11.62-22.32c0,0-37.85-18.76-42.11-21.38
				c-5.19,8.42-7.5,18.57-8.51,26.47C594.77,390.14,594.97,395.62,594.97,395.62z"/></g></svg>