<svg xmlns="http://www.w3.org/2000/svg" data-name="4" viewBox="0 0 4680 3120"><defs><clipPath id="a"><path fill="#e4ecf8" d="M854.8298,2712.3324s-346.2562-251.2073-375.3-747.4441,268.6549-634.1946,501.005-754.0002,230.5349-117.9903,399.3519-484.6679,649.8543-497.3745,1123.6307-208.752,544.5707,314.0357,918.5092,432.026,789.6274,461.0698,717.018,1081.8804-395.7213,697.0504-395.7213,697.0504Z" class="colore4f6f8 svgShape"/></clipPath><clipPath id="b"><path fill="#ff978e" d="M2499.6601,1777.8365s-97.335-102.7858-110.5726-113.6873-132.3756,16.3523-146.3918,18.6883-28.8112,32.7046-28.0325,70.0812,17.9096,126.9249,41.27,135.4903,190.7766,10.1229,190.7766,10.1229Z" class="colorffa68e svgShape"/></clipPath><clipPath id="c"><path fill="#be2c20" d="M3019.5676,1381.4924h-21.4292s-38.4736,19.06-58.4411,111.637-53.5495,320.389-135.2351,367.5852-225.0892-9.9838-319.4814-119.8056c0,0-90.7618,170.6321-88.039,170.6321s40.8428,25.4133,40.8428,25.4133l-12.7066,20.8753s119.9699,180.6883,323.1119,218.7358,256.8558-126.1588,256.8558-126.1588Z" class="colorbe2041 svgShape"/></clipPath><clipPath id="d"><path fill="#f55e51" d="M3224.2354,1222.2055c0,1.3614,6.8072,78.9627,3.1767,86.2237s-159.2869,53.5494-202.3988,59.4489-74.8784,72.6094-70.7942,253.6792,15.6299,298.1524-.3536,554.1006-45.9349,520.3095-45.9349,520.3095h833.177s8.1525-208.5428,0-416.8411-6.791-434.2951-14.9596-620.8105-17.0178-276.3696-56.4992-293.3874-258.671-61.2642-276.3696-74.8785-10.6645-89.1735-10.6645-89.1735l-2.9497-34.0356s-64.7905-12.543-71.8766-13.0786-26.1462-10.0657-26.1462-10.0657Z" class="colorf55b51 svgShape"/></clipPath><clipPath id="e"><polygon fill="#ff978e" points="3124.397 1312.423 3261.221 1470.439 3554.647 1299.58 3366.051 1135.528 3219.198 1155.269 3124.397 1312.423" class="colorffa68e svgShape"/></clipPath><clipPath id="f"><path fill="#05541a" d="M3072.2095,1022.9834s-22.6905,0-31.3129-66.7099,3.1767-167.0017,153.3874-196.0455,292.253,31.7666,314.9434,117.0827-20.4214,258.2173-126.6127,323.5657l-105.6635-27.2285Z" class="color055451 svgShape"/></clipPath><clipPath id="g"><path fill="#ff978e" d="M3065.8561,943.5668v208.2983c0,64.4408,29.0438,100.7456,86.2237,106.1913s140.6808-20.8752,157.0179-110.7294c0,0,54.9109,1.8152,62.6256-59.9028s-41.2966-80.3241-60.8104-59.4489l-27.2285,57.1799s-9.9838-63.9871-14.9757-89.4004-20.8752-67.1637-20.8752-67.1637S3168.8707,963.9882,3065.8561,943.5668Z" class="colorffa68e svgShape"/></clipPath><clipPath id="h"><path fill="#ff978e" d="M3199.2759,1821.687s-39.9351-49.0114-49.0113-87.1313-36.7585-57.8606-65.3485-86.4506-49.7127-59.6648-58.9952-95.678-34.4894-47.4987-45.6834-17.5473,2.4203,112.242,2.4203,112.242-198.1632-16.0345-214.5003-16.0345-35.3971,42.658,0,52.6418,124.2203,20.0355,124.2203,20.0355,5.569,106.1234,29.1671,126.091,168.8169,51.7342,179.7083,64.4408Z" class="colorffa68e svgShape"/></clipPath><clipPath id="i"><path fill="#be2c20" d="M3570.4916,1435.9494c27.8433-42.4635,76.7612-80.3053,111.4438-62.3893s92.7702,144.0749,107.2921,311.9842,11.799,574.5221-305.8672,576.3373-417.5042-357.6014-417.5042-357.6014l138.8655-105.2837s143.4036,244.1492,317.6663,152.4798c85.316-45.3809,33.5818-280.4539.9076-335.8185C3523.2955,1615.6578,3515.1147,1520.404,3570.4916,1435.9494Z" class="colorbe2041 svgShape"/></clipPath><clipPath id="j"><path fill="#7e322c" d="M1716.6128,1004.8589s36.0778-10.6645,62.7013-49.9946,25.5646-109.973-4.3868-158.0768-122.5284-80.778-155.6565-19.9676c0,0-117.5365-24.0518-199.6759,31.7666s-95.7536,109.8218-95.7536,109.8218l-63.5333-29.9514-14.0681,54.4571,70.3404,2.269s-72.1556,24.9595-70.3404,24.9595,70.7942-8.6224,70.7942-8.6224-31.7666,66.2561-1.8152,149.757,121.7453,169.4207,234.2276,153.2355Z" class="color7e2d2c svgShape"/></clipPath><clipPath id="k"><path fill="#ffd65e" d="M1509.676,1196.1393v136.8234s-32.6742,18.3793-108.9141,34.0357-170.8591-3.4036-190.8267,121.8477-56.2723,642.5933-9.0762,922.1396,105.2837,292.2529,105.2837,292.2529h656.2076s-92.577-283.1767-92.577-677.9905,15.4295-516.4345-23.598-558.1849-175.1703-67.1637-216.9207-116.175l-.9076-75.3323Z" class="colorffc15e svgShape"/></clipPath><clipPath id="l"><path fill="#ff978e" d="M1400.535,1348.1653l19.5644,14.5992s20.3707,82.5159,144.7144,91.5921,126.1588-107.0989,126.1588-107.0989l-58.9951-139.7732-156.1103-44.4732Z" class="colorffa68e svgShape"/></clipPath><clipPath id="m"><path fill="#ff978e" d="M1721.8316,980.5801s19.06,144.3112,24.5057,207.8445-39.9352,100.7455-85.316,108.4603-123.8899-12.2528-145.6727-87.1313c0,0-59.449,6.8071-59.449-52.6418s40.8428-60.3566,54.9109-50.3728c0,0,40.389,5.8995,55.8185-24.9595s13.6143-50.3728,13.6143-50.3728,21.5559,9.9838,42.2042-7.9417,20.8752-38.5737,20.8752-38.5737,11.5721,12.7066,33.1281,12.0259S1721.8316,980.5801,1721.8316,980.5801Z" class="colorffa68e svgShape"/></clipPath><clipPath id="n"><path fill="#ff978e" d="M1878.6226,1876.8526s76.2399-62.6256,91.2156-87.812,55.8185-103.4684,69.4328-116.402,140.9076-38.8006,160.6483-6.1264,49.0114,174.2626,41.5235,204.214-164.7326,41.5235-173.5819,43.5657-82.3663,85.7699-82.3663,85.7699Z" class="colorffa68e svgShape"/></clipPath><clipPath id="o"><path fill="#dd3123" d="M1298.5801,1390.481c61.9983,5.7755,79.0098,64.1519,77.239,188.1044s-36.3003,276.2369,59.3201,363.889,251.4465,90.3082,430.2921-81.4545c0,0,87.6521,34.5296,138.1185,124.8379,0,0-135.4623,211.1618-363.889,236.395s-365.2171-62.4189-450.213-229.7547S1108.8984,1372.8113,1298.5801,1390.481Z" class="colordd5c23 svgShape"/></clipPath><clipPath id="p"><rect width="3078.64" height="91.251" x="806.953" y="2668.749" fill="#47a861" class="color5ea847 svgShape" rx="45.625"/></clipPath><clipPath id="q"><path fill="#3f67a8" d="M2634.8932,685.6055v42.2047H2314.5047a69.89,69.89,0,0,0-69.888,69.8881v286.3511H1956.906a69.89013,69.89013,0,0,1-69.8882-69.8883V926.1257H1825.297s40.4274-35.3084,61.7208-53.287V685.6055a69.89,69.89,0,0,1,69.8882-69.8881h608.0992A69.88991,69.88991,0,0,1,2634.8932,685.6055Z" class="color3fa7a8 svgShape" opacity=".65"/></clipPath><clipPath id="r"><path fill="#95b6ee" d="M3065.1084,1076.7885l-72.6075,10.4868v38.9788a69.89,69.89,0,0,1-69.8882,69.888h-608.108a69.88989,69.88989,0,0,1-69.888-69.888v-42.2047h320.3885a69.89008,69.89008,0,0,0,69.888-69.8883V727.8102h287.7195a69.89008,69.89008,0,0,1,69.8882,69.8881v226.6919Z" class="color95dbee svgShape"/></clipPath><clipPath id="s"><path fill="#86a9e2" d="M2451.0923,2675.8728H1728.7241a43.8833,43.8833,0,0,1-40.6792-27.423l-176.4901-436.1691a21.72751,21.72751,0,0,1,20.1411-29.8774h722.3682a43.88344,43.88344,0,0,1,40.6793,27.423l176.4901,436.1691A21.7276,21.7276,0,0,1,2451.0923,2675.8728Z" class="color86cae2 svgShape"/></clipPath><clipPath id="t"><rect width="624.441" height="159.741" x="870.486" y="2349.268" fill="#3b9e55" class="color3b809e svgShape" rx="41.455"/></clipPath><clipPath id="u"><path fill="#fff" d="M955.0049,2374.9079h570.4443a39.8184,39.8184,0,0,1,39.8184,39.8184v34.0422a39.8185,39.8185,0,0,1-39.8185,39.8185H955.0049a39.8185,39.8185,0,0,1-39.8185-39.8185v-34.0421A39.8185,39.8185,0,0,1,955.0049,2374.9079Z" class="colorffffff svgShape"/></clipPath><clipPath id="v"><path fill="#34a853" d="M911.941,2509.0084h541.5314a41.4548,41.4548,0,0,1,41.4548,41.4548v76.831a41.4549,41.4549,0,0,1-41.4549,41.4549H911.941a41.4548,41.4548,0,0,1-41.4548-41.4548v-76.8311A41.4548,41.4548,0,0,1,911.941,2509.0084Z" class="color3b9b66 svgShape"/></clipPath><clipPath id="w"><path fill="#fff" d="M955.0048,2534.6486h570.4444a39.8184,39.8184,0,0,1,39.8184,39.8184v34.0423a39.8184,39.8184,0,0,1-39.8184,39.8184H955.0049a39.8185,39.8185,0,0,1-39.8185-39.8185V2574.467A39.8184,39.8184,0,0,1,955.0048,2534.6486Z" class="colorffffff svgShape"/></clipPath><clipPath id="x"><path fill="#51af6a" d="M3534.0461,2225.637s14.3135-53.5601,64.6415-62.7946,68.7971,44.9067,48.4812,83.1702-67.8736,77.9718-131.5917,95.5174Z" class="color51af63 svgShape"/></clipPath><clipPath id="y"><path fill="#51af6a" d="M3297.1812,2240.1095c-1.3852-.6207-30.1101-25.226-66.9501-10.317s-64.5516,53.3472-54.4836,109.4289,39.7084,94.1919,79.4167,128.3595,69.2588,45.2491,69.2588,45.2491l66.0266,2.3086v-48.0194Z" class="color51af63 svgShape"/></clipPath><clipPath id="z"><path fill="#d8bf75" d="M3359.0523,2502.672s-42.4787-79.8784-57.7156-164.3741-38.6095-199.9593,57.7156-248.4081,158.3717,17.5456,168.5297,62.7947,18.0646,101.2059,4.4804,187.4603-46.0357,162.5272-46.0357,162.5272Z" class="colorc3d875 svgShape"/></clipPath><clipPath id="A"><path fill="#f9ba02" d="M3255.9581,2513.0138l28.0438,149.0751a17.271,17.271,0,0,0,16.9732,14.0779h152.5895a17.27087,17.27087,0,0,0,16.9629-14.0238l28.5359-149.0751a17.27092,17.27092,0,0,0-16.9629-20.5179H3272.9312A17.27082,17.27082,0,0,0,3255.9581,2513.0138Z" class="colorf9ca02 svgShape"/></clipPath><clipPath id="B"><path fill="#fbbc05" d="M2523.1779,862.0297a97.5099,97.5099,0,1,0-177.4484,55.8433h-.0031l35.9326,70.7595h91.2231l32.7265-70.7595h-.002A97.05456,97.05456,0,0,0,2523.1779,862.0297Z" class="colorffc801 svgShape"/></clipPath></defs><path fill="#e4ecf8" d="M854.8298,2712.3324s-346.2562-251.2073-375.3-747.4441,268.6549-634.1946,501.005-754.0002,230.5349-117.9903,399.3519-484.6679,649.8543-497.3745,1123.6307-208.752,544.5707,314.0357,918.5092,432.026,789.6274,461.0698,717.018,1081.8804-395.7213,697.0504-395.7213,697.0504Z" class="colore4f6f8 svgShape"/><g class="color000000 svgShape" clip-path="url(#a)"><circle cx="1594.542" cy="1494.751" r="528.323" fill="#b3c4e0" class="colorb3dfe0 svgShape" opacity=".51"/><circle cx="3051.505" cy="1612.376" r="437.083" fill="#b3c4e0" class="colorb3dfe0 svgShape" opacity=".51"/><circle cx="3243.009" cy="2287.785" r="528.323" fill="#b3c4e0" class="colorb3dfe0 svgShape" opacity=".51"/><circle cx="3716.971" cy="2271.685" r="528.323" fill="#b3c4e0" class="colorb3dfe0 svgShape" opacity=".51"/><circle cx="1944.518" cy="2104.724" r="528.323" fill="#b3c4e0" class="colorb3dfe0 svgShape" opacity=".51"/><circle cx="1343.543" cy="2415.773" r="528.323" fill="#b3c4e0" class="colorb3dfe0 svgShape" opacity=".51"/></g><path fill="#ff978e" d="M2499.6601,1777.8365s-97.335-102.7858-110.5726-113.6873-132.3756,16.3523-146.3918,18.6883-28.8112,32.7046-28.0325,70.0812,17.9096,126.9249,41.27,135.4903,190.7766,10.1229,190.7766,10.1229Z" class="colorffa68e svgShape"/><g class="color000000 svgShape" clip-path="url(#b)"><path fill="#f25f53" d="M2542.7719,1747.9709s-41.5235,108.2334-214.4247,151.7991c0,0,136.1427,41.5235,138.8655,39.4814s53.7764-37.4393,55.8185-61.9449S2542.7719,1747.9709,2542.7719,1747.9709Z" class="colorf27153 svgShape"/><path fill="#f25f53" d="M2312.4661,1695.7829s52.8322-2.7229,44.6808,59.2221,20.6779,119.2959-32.5374,139.2914c0,0,21.4868,3.2254,35.5296-21.7445s7.9295-26.6905,7.9229-83.6908S2378.8001,1684.5889,2312.4661,1695.7829Z" class="colorf27153 svgShape"/></g><path fill="#be2c20" d="M3019.5676,1381.4924h-21.4292s-38.4736,19.06-58.4411,111.637-53.5495,320.389-135.2351,367.5852-225.0892-9.9838-319.4814-119.8056c0,0-90.7618,170.6321-88.039,170.6321s40.8428,25.4133,40.8428,25.4133l-12.7066,20.8753s119.9699,180.6883,323.1119,218.7358,256.8558-126.1588,256.8558-126.1588Z" class="colorbe2041 svgShape"/><g class="color000000 svgShape" clip-path="url(#c)"><path fill="#890b00" d="M2391.326,1860.2114s119.8055,158.8331,283.1767,204.6678,353.0633-123.2091,353.0633-123.2091-2.7229,236.2075,0,243.4684-231.4425,148.3726-231.4425,148.3726-247.2552,73.0861-319.6731-72.1327-90.5701-235.9806-90.5701-235.9806Z" class="color890021 svgShape" opacity=".49"/></g><path fill="#f55e51" d="M3224.2354,1222.2055c0,1.3614,6.8072,78.9627,3.1767,86.2237s-159.2869,53.5494-202.3988,59.4489-74.8784,72.6094-70.7942,253.6792,15.6299,298.1524-.3536,554.1006-45.9349,520.3095-45.9349,520.3095h833.177s8.1525-208.5428,0-416.8411-6.791-434.2951-14.9596-620.8105-17.0178-276.3696-56.4992-293.3874-258.671-61.2642-276.3696-74.8785-10.6645-89.1735-10.6645-89.1735l-2.9497-34.0356s-64.7905-12.543-71.8766-13.0786-26.1462-10.0657-26.1462-10.0657Z" class="colorf55b51 svgShape"/><g class="color000000 svgShape" clip-path="url(#d)"><polygon fill="#ff978e" points="3124.397 1312.423 3261.221 1470.439 3554.647 1299.58 3366.051 1135.528 3219.198 1155.269 3124.397 1312.423" class="colorffa68e svgShape"/><g class="color000000 svgShape" clip-path="url(#e)"><path fill="#ea4335" d="M3208.8059,1262.6323s49.0114,17.0178,108.2334-48.3307c0,0,75.5592,19.7407,78.2821,17.6986s12.6125-59.2193,12.6125-59.2193l-161.229-23.5244s-54.2361,71.8523-46.0675,72.533S3208.8059,1262.6323,3208.8059,1262.6323Z" class="colorf0623c svgShape"/><path fill="#ea4335" d="M3177.9469,1309.3368c1.3614.9076,88.4928,94.846,88.4928,94.846l153.3874-119.8055,37.2123,18.9695s-57.1799,115.8117-77.6013,125.3417-123.4361,12.7067-123.4361,12.7067-49.4651-14.0681-52.6418-20.4214S3177.9469,1309.3368,3177.9469,1309.3368Z" class="colorf0623c svgShape"/></g><path fill="#fff" d="M2867.352,1762.2985s466.2804,158.5736,911.1415-41.1023c0,0-7.7465,103.2218-1.1461,121.3742s-211.228,117.9903-476.2523,101.6532-414.8778-55.4135-414.8778-55.4135Z" class="colorffffff svgShape"/><path fill="#fff" d="M2867.352,1992.3796s466.2804,158.5736,911.1415-41.1023c0,0-7.7465,103.2218-1.1461,121.3742s-211.228,117.9903-476.2523,101.6532-414.8778-55.4135-414.8778-55.4135Z" class="colorffffff svgShape"/><path fill="#992319" d="M3562.0266,1622.2659s-1.3614,264.1167-83.047,289.9838-322.6581-121.1669-322.6581-121.1669l-154.2729,69.5097s-7.9758,224.4532,171.6131,378.3996,372.0278,382.7436,378.835,551.3778c0,0,262.7553-14.9757,266.8396-16.3371s40.8428-902.6259,40.8428-902.6259Z" class="color991919 svgShape" opacity=".24"/></g><path fill="#be2c20" d="M3270.9777,1433.6804l-9.7569-4.765s-27.9092-36.5316-50.5996-72.3825-27.2286-40.8428-45.3809-43.5657-31.0859,5.2188-33.1281,13.8412-12.0259,4.5381-19.2869,9.3031-10.6645,5.4457,1.8153,17.0178,146.5802,164.6111,146.5802,164.6111l9.7569-23.2496Z" class="colorbe2041 svgShape"/><path fill="#05541a" d="M3072.2095,1022.9834s-22.6905,0-31.3129-66.7099,3.1767-167.0017,153.3874-196.0455,292.253,31.7666,314.9434,117.0827-20.4214,258.2173-126.6127,323.5657l-105.6635-27.2285Z" class="color055451 svgShape"/><g class="color000000 svgShape" clip-path="url(#f)"><path fill="#02330f" d="M3021.3829,895.9169s70.7941,40.8428,229.6272-13.6143c0,0,32.6743,84.4085,131.6046,115.2675s147.9417,12.7066,147.9417,12.7066l-96.2075,202.3988-78.0551,18.1523-272.2853-21.7828s-111.637-108.0049-108.9141-143.4028,57.1799-144.312,57.1799-144.312Z" class="color02332f svgShape"/></g><path fill="#ff978e" d="M3065.8561,943.5668v208.2983c0,64.4408,29.0438,100.7456,86.2237,106.1913s140.6808-20.8752,157.0179-110.7294c0,0,54.9109,1.8152,62.6256-59.9028s-41.2966-80.3241-60.8104-59.4489l-27.2285,57.1799s-9.9838-63.9871-14.9757-89.4004-20.8752-67.1637-20.8752-67.1637S3168.8707,963.9882,3065.8561,943.5668Z" class="colorffa68e svgShape"/><g class="color000000 svgShape" clip-path="url(#g)"><path fill="#083f17" d="M3214.0874,1078.9683h0a15.80055,15.80055,0,0,0,17.0534-14.4394l1.108-13.3484a15.80055,15.80055,0,0,0-14.4394-17.0534h-.0001a15.80054,15.80054,0,0,0-17.0534,14.4394l-1.1079,13.3484A15.80054,15.80054,0,0,0,3214.0874,1078.9683Z" class="color3f1208 svgShape"/><path fill="#083f17" d="M3100.9837,1069.5803h0a15.80048,15.80048,0,0,0,17.0534-14.4394l1.108-13.3484a15.80061,15.80061,0,0,0-14.4394-17.0534h0a15.80055,15.80055,0,0,0-17.0534,14.4394l-1.108,13.3484A15.80055,15.80055,0,0,0,3100.9837,1069.5803Z" class="color3f1208 svgShape"/><path fill="#083f17" d="M3200.8091,1020.1328l36.3251,3.015a5.18321,5.18321,0,0,0,5.5942-4.7367h0a5.18321,5.18321,0,0,0-4.7367-5.5942l-36.3251-3.0151a5.18315,5.18315,0,0,0-5.5942,4.7367h0A5.1833,5.1833,0,0,0,3200.8091,1020.1328Z" class="color3f1208 svgShape"/><path fill="#083f17" d="M3088.5802,1010.8174l36.3251,3.0151a5.18321,5.18321,0,0,0,5.5942-4.7367h0a5.18325,5.18325,0,0,0-4.7367-5.5943l-36.3251-3.0151a5.18329,5.18329,0,0,0-5.5942,4.7368h0A5.18321,5.18321,0,0,0,3088.5802,1010.8174Z" class="color3f1208 svgShape"/><path fill="#c92d20" d="M3130.9569,1131.0211h0a13.89829,13.89829,0,0,0,15.0003-12.701l4.4501-53.6135a13.89822,13.89822,0,0,0-12.701-15.0003h0a13.89831,13.89831,0,0,0-15.0004,12.701l-4.45,53.6135A13.89822,13.89822,0,0,0,3130.9569,1131.0211Z" class="colorc93c20 svgShape"/><path fill="#fff" d="M3209.5936,1163.1485a5.21625,5.21625,0,0,1,4.7828,7.3874c-4.5954,10.0263-15.8679,26.6535-40.1315,26.8182-23.7417.1611-37.8807-15.5847-44.4587-25.5828a5.21991,5.21991,0,0,1,4.3126-8.1025Z" class="colorffffff svgShape"/><path fill="#ea4335" d="M3054.9647,963.0806s73.8969,19.06,185.0801-3.6305c0,0,10.1317,27.6824,47.2701,146.1265,0,0,14.0752-41.9259,45.3808-53.5495s49.4652-2.7228,49.4652-2.7228l-84.8622-135.2351s-40.8428-.4538-44.4733-.4538-196.4993,11.7991-196.4993,11.7991Z" class="colorf0623c svgShape"/><circle cx="3241.554" cy="1119.191" r="35.397" fill="#ea4335" class="colorf0623c svgShape" opacity=".43" transform="rotate(-22.5 3241.554 1119.19)"/><circle cx="3074.19" cy="1109.51" r="35.397" fill="#ea4335" class="colorf0623c svgShape" opacity=".43"/></g><path fill="#ff978e" d="M3199.2759,1821.687s-39.9351-49.0114-49.0113-87.1313-36.7585-57.8606-65.3485-86.4506-49.7127-59.6648-58.9952-95.678-34.4894-47.4987-45.6834-17.5473,2.4203,112.242,2.4203,112.242-198.1632-16.0345-214.5003-16.0345-35.3971,42.658,0,52.6418,124.2203,20.0355,124.2203,20.0355,5.569,106.1234,29.1671,126.091,168.8169,51.7342,179.7083,64.4408Z" class="colorffa68e svgShape"/><g class="color000000 svgShape" clip-path="url(#h)"><path fill="#ea4335" d="M2867.7686,1706.0184l24.6092-2.2538s6.8784,71.6339,81.3291,100.2238,195.6476,21.8224,195.6476,21.8224l-19.4791,87.178-111.2478,30.5459s-47.6499-27.2286-92.577-56.4992-75.5592-59.2221-77.6013-61.2642S2867.7686,1706.0184,2867.7686,1706.0184Z" class="colorf0623c svgShape"/></g><path fill="#be2c20" d="M3570.4916,1435.9494c27.8433-42.4635,76.7612-80.3053,111.4438-62.3893s92.7702,144.0749,107.2921,311.9842,11.799,574.5221-305.8672,576.3373-417.5042-357.6014-417.5042-357.6014l138.8655-105.2837s143.4036,244.1492,317.6663,152.4798c85.316-45.3809,33.5818-280.4539.9076-335.8185C3523.2955,1615.6578,3515.1147,1520.404,3570.4916,1435.9494Z" class="colorbe2041 svgShape"/><g class="color000000 svgShape" clip-path="url(#i)"><path fill="#890b00" d="M3657.6229,1325.9781s45.9952,157.1853,69.2861,350.499.2072,485.8412-206.0792,487.5191-433.1908-332.4844-433.1908-332.4844-57.0757,26.8927-58.4892,37.1239,250.9041,465.8553,261.7955,471.301,289.0656,56.2723,299.7354,49.0114,139.1492-158.1431,147.519-197.9695,123.3583-304.7289,111.7977-320.6188-16.2967-390.8447-16.2967-390.8447l-73.4136-157.2636Z" class="color890021 svgShape" opacity=".49"/></g><path fill="#be2c20" d="M3261.2208,1428.9154v88.825s116.8558-93.1362,164.9596-121.2723,128.4665-62.7182,128.4665-62.7182-9.5686-12.1603-20.46-19.4212-25.8671-17.2448-38.5738-13.6143-10.8914-18.6062-27.2285-24.9595-41.4849,19.5138-60.4507,36.7585S3261.2208,1428.9154,3261.2208,1428.9154Z" class="colorbe2041 svgShape"/><path fill="#7e322c" d="M1716.6128,1004.8589s36.0778-10.6645,62.7013-49.9946,25.5646-109.973-4.3868-158.0768-122.5284-80.778-155.6565-19.9676c0,0-117.5365-24.0518-199.6759,31.7666s-95.7536,109.8218-95.7536,109.8218l-63.5333-29.9514-14.0681,54.4571,70.3404,2.269s-72.1556,24.9595-70.3404,24.9595,70.7942-8.6224,70.7942-8.6224-31.7666,66.2561-1.8152,149.757,121.7453,169.4207,234.2276,153.2355Z" class="color7e2d2c svgShape"/><g class="color000000 svgShape" clip-path="url(#j)"><path fill="#54140f" d="M1798.3854,796.3337s-18.0124,119.3517-155.5165,123.436c0,0-15.4295,75.3323-93.0308,54.4571,0,0,6.8071,76.6937-50.8266,88.4927s-78.0551,45.3809-75.7861,85.3161-15.4295,77.1475-73.517,55.3647l40.8428,77.6013,112.5446,19.9676,98.2456,9.0762,68.3022-56.2723s134.3274-220.0974,140.6808-234.6192,12.9301-58.9952,23.598-84.4085S1798.3854,796.3337,1798.3854,796.3337Z" class="color540f0f svgShape"/></g><path fill="#ba1a0d" d="M1808.5091,1479.3161s11.3453-16.3372,37.6662-12.2529,58.9951,29.9514,88.9465,171.5398,46.2885,422.0422,61.2642,532.3178,148.3955,532.3178,148.3955,532.3178H1878.6226S1687.3422,1889.8114,1808.5091,1479.3161Z" class="colorba3e0d svgShape"/><path fill="#ffd65e" d="M1509.676,1196.1393v136.8234s-32.6742,18.3793-108.9141,34.0357-170.8591-3.4036-190.8267,121.8477-56.2723,642.5933-9.0762,922.1396,105.2837,292.2529,105.2837,292.2529h656.2076s-92.577-283.1767-92.577-677.9905,15.4295-516.4345-23.598-558.1849-175.1703-67.1637-216.9207-116.175l-.9076-75.3323Z" class="colorffc15e svgShape"/><g class="color000000 svgShape" clip-path="url(#k)"><path fill="#ff978e" d="M1400.535,1348.1653l19.5644,14.5992s20.3707,82.5159,144.7144,91.5921,126.1588-107.0989,126.1588-107.0989l-58.9951-139.7732-156.1103-44.4732Z" class="colorffa68e svgShape"/><g class="color000000 svgShape" clip-path="url(#l)"><path fill="#ea4335" d="M1491.2967,1240.1588s44.4733,75.3323,145.2189,97.1151l-2.7229-101.6532-137.0503-62.6256Z" class="colorf0623c svgShape"/><path fill="#ea4335" d="M1693.0904,1382.6548c-2.7228,0-15.4295-6.9584-15.4295-6.9584s-20.2701,60.5078-96.2075,68.9789-146.1264-44.4732-146.1264-44.4732l28.7412,67.1637,146.7315-4.5381s66.8612-9.6813,68.0714-11.4965,25.382-38.725,27.531-45.3809S1693.0904,1382.6548,1693.0904,1382.6548Z" class="colorf0623c svgShape"/></g><path fill="#edba24" d="M1340.1784,1581.4231s-20.4214,388.0066,255.9482,386.6451c183.7926,4.0843,221.9125-153.8412,231.4425-255.9482s-28.3782-404.376-12.2528-298.1524c1.1013,7.2548,96.6613,47.7003,96.6613,52.4401s60.5052,867.8843,60.5052,867.8843l96.0588,352.6095-7.9097,115.7213s-393.7111,6.8071-456.3368-84.4085-98.0227-370.308-201.4911-458.8008-235.5268-147.0341-258.6711-287.261S1340.1784,1581.4231,1340.1784,1581.4231Z" class="colored9b24 svgShape"/></g><path fill="#ff978e" d="M1721.8316,980.5801s19.06,144.3112,24.5057,207.8445-39.9352,100.7455-85.316,108.4603-123.8899-12.2528-145.6727-87.1313c0,0-59.449,6.8071-59.449-52.6418s40.8428-60.3566,54.9109-50.3728c0,0,40.389,5.8995,55.8185-24.9595s13.6143-50.3728,13.6143-50.3728,21.5559,9.9838,42.2042-7.9417,20.8752-38.5737,20.8752-38.5737,11.5721,12.7066,33.1281,12.0259S1721.8316,980.5801,1721.8316,980.5801Z" class="colorffa68e svgShape"/><g class="color000000 svgShape" clip-path="url(#m)"><path fill="#ea4335" d="M1440.697,1091.3095s38.1956,51.4316,96.5857,36.9098,59.6002-78.0552,59.6002-78.0552,44.5935-7.2226,61.113-37.2123c0,0,42.658,6.9584,72.3068-16.9422l-11.799-51.4317-150.362,27.8336Z" class="colorf0623c svgShape"/><path fill="#083f17" d="M1602.6515,1135.1602h0a14.29494,14.29494,0,0,1-15.7826-12.6334l-1.3348-12.0443a14.295,14.295,0,0,1,12.6334-15.7825h0a14.29487,14.29487,0,0,1,15.7826,12.6334l1.3348,12.0442A14.29494,14.29494,0,0,1,1602.6515,1135.1602Z" class="color3f1208 svgShape"/><path fill="#083f17" d="M1704.705,1123.8503h0a14.295,14.295,0,0,1-15.7826-12.6334l-1.3348-12.0443a14.295,14.295,0,0,1,12.6334-15.7826h0a14.295,14.295,0,0,1,15.7826,12.6334l1.3348,12.0443A14.29513,14.29513,0,0,1,1704.705,1123.8503Z" class="color3f1208 svgShape"/><path fill="#083f17" d="M1613.1932,1081.6201l-32.7762,3.6324a4.68938,4.68938,0,0,1-5.1773-4.1443h0a4.6894,4.6894,0,0,1,4.1443-5.1774l32.7761-3.6324a4.68948,4.68948,0,0,1,5.1774,4.1443h0A4.68948,4.68948,0,0,1,1613.1932,1081.6201Z" class="color3f1208 svgShape"/><path fill="#083f17" d="M1714.4573,1070.3976l-32.7761,3.6324a4.68925,4.68925,0,0,1-5.1773-4.1443h0a4.68918,4.68918,0,0,1,4.1442-5.1773l32.7762-3.6324a4.68931,4.68931,0,0,1,5.1773,4.1443h0A4.68925,4.68925,0,0,1,1714.4573,1070.3976Z" class="color3f1208 svgShape"/><path fill="#c92d20" d="M1669.6905,1180.4229h-.0001a12.574,12.574,0,0,1-13.8824-11.1125l-5.3612-48.3754a12.574,12.574,0,0,1,11.1125-13.8825h0a12.574,12.574,0,0,1,13.8825,11.1125l5.3611,48.3754A12.574,12.574,0,0,1,1669.6905,1180.4229Z" class="colorc93c20 svgShape"/><path fill="#fff" d="M1608.9744,1209.1566a4.7192,4.7192,0,0,0-5.1466,6.0749c2.9626,9.5283,11.1524,25.7524,32.9045,28.709,21.2842,2.893,35.7935-9.5985,42.8532-17.8082a4.72239,4.72239,0,0,0-2.9316-7.7693Z" class="colorffffff svgShape"/><circle cx="1570.022" cy="1176.928" r="41.534" fill="#ea4335" class="colorf0623c svgShape" opacity=".43" transform="rotate(-45 1570.022 1176.928)"/><circle cx="1749.731" cy="1161.952" r="41.534" fill="#ea4335" class="colorf0623c svgShape" opacity=".43" transform="rotate(-45 1749.73 1161.952)"/></g><path fill="#ff978e" d="M1878.6226,1876.8526s76.2399-62.6256,91.2156-87.812,55.8185-103.4684,69.4328-116.402,140.9076-38.8006,160.6483-6.1264,49.0114,174.2626,41.5235,204.214-164.7326,41.5235-173.5819,43.5657-82.3663,85.7699-82.3663,85.7699Z" class="colorffa68e svgShape"/><g class="color000000 svgShape" clip-path="url(#n)"><path fill="#f25f53" d="M2225.7864,1665.1508c2.0421,5.4457,6.8071,132.7391-49.6921,154.5219s-112.3177,34.7164-140.2269,27.2286c0,0,0,27.9092-23.1443,59.9027s-70.3808,32.333-70.3808,32.333l36.7676,60.9248,34.2939,38.1199s181.0698-55.1378,236.8883-88.4927,94.6191,52.4149,72.1556-67.3907S2225.7864,1665.1508,2225.7864,1665.1508Z" class="colorf27153 svgShape"/></g><path fill="#dd3123" d="M1298.5801,1390.481c61.9983,5.7755,79.0098,64.1519,77.239,188.1044s-36.3003,276.2369,59.3201,363.889,251.4465,90.3082,430.2921-81.4545c0,0,87.6521,34.5296,138.1185,124.8379,0,0-135.4623,211.1618-363.889,236.395s-365.2171-62.4189-450.213-229.7547S1108.8984,1372.8113,1298.5801,1390.481Z" class="colordd5c23 svgShape"/><g class="color000000 svgShape" clip-path="url(#o)"><path fill="#ba1a0d" d="M1146.8558,1408.5219s-88.4927,462.885,202.8526,654.8462,560.9077-65.3485,618.0877-159.2869l69.4327,63.987-117.0827,204.214s-326.6109,123.4612-349.9907,125.2513-223.1699-2.7229-223.1699-2.7229-127.5612-98.0227-169.2912-137.5041-131.5841-125.2512-132.9455-157.2447S980.7617,1462.9789,1146.8558,1408.5219Z" class="colorba3e0d svgShape"/></g><rect width="3078.64" height="91.251" x="806.953" y="2668.749" fill="#47a861" class="color5ea847 svgShape" rx="45.625"/><g class="color000000 svgShape" clip-path="url(#p)"><rect width="3362.724" height="280.209" x="745.235" y="2714.375" fill="#26773c" class="color3c7726 svgShape"/></g><path fill="#3f67a8" d="M2634.8932,685.6055v42.2047H2314.5047a69.89,69.89,0,0,0-69.888,69.8881v286.3511H1956.906a69.89013,69.89013,0,0,1-69.8882-69.8883V926.1257H1825.297s40.4274-35.3084,61.7208-53.287V685.6055a69.89,69.89,0,0,1,69.8882-69.8881h608.0992A69.88991,69.88991,0,0,1,2634.8932,685.6055Z" class="color3fa7a8 svgShape" opacity=".65"/><g class="color000000 svgShape" clip-path="url(#q)"><path fill="#2a8743" d="M1974.1494,713.7131h573.61454A19.05986,19.05986,0,0,1,2566.8238,732.773v0a19.06,19.06,0,0,1-19.06,19.06H1974.14926a19.05986,19.05986,0,0,1-19.05986-19.05986v0A19.06,19.06,0,0,1,1974.1494,713.7131Z" class="color2a8784 svgShape" opacity=".65"/><path fill="#2a8743" d="M2547.7638,864.8314H1974.1494a19.05991,19.05991,0,0,1-19.06-19.0599h0a19.05993,19.05993,0,0,1,19.06-19.06h573.6144a19.06,19.06,0,0,1,19.06,19.06h0A19.06,19.06,0,0,1,2547.7638,864.8314Z" class="color2a8784 svgShape" opacity=".65"/><path fill="#2a8743" d="M2547.7638,977.8299H1974.1494a19.06,19.06,0,0,1-19.06-19.06h0a19.05993,19.05993,0,0,1,19.06-19.06h573.6144a19.06,19.06,0,0,1,19.06,19.06h0A19.06006,19.06006,0,0,1,2547.7638,977.8299Z" class="color2a8784 svgShape" opacity=".65"/></g><path fill="#fff" d="M2634.8932,727.8102v286.3509a69.89008,69.89008,0,0,1-69.888,69.8883H2244.6167V797.6983a69.89,69.89,0,0,1,69.888-69.8881Z" class="colorffffff svgShape"/><path fill="#95b6ee" d="M3065.1084,1076.7885l-72.6075,10.4868v38.9788a69.89,69.89,0,0,1-69.8882,69.888h-608.108a69.88989,69.88989,0,0,1-69.888-69.888v-42.2047h320.3885a69.89008,69.89008,0,0,0,69.888-69.8883V727.8102h287.7195a69.89008,69.89008,0,0,1,69.8882,69.8881v226.6919Z" class="color95dbee svgShape"/><g class="color000000 svgShape" clip-path="url(#r)"><path fill="#4285f4" d="M2911.5105,868.0377H2337.8961a19.06,19.06,0,0,1-19.06-19.0599h0a19.06,19.06,0,0,1,19.06-19.06h573.6144a19.05993,19.05993,0,0,1,19.06,19.06h0A19.05991,19.05991,0,0,1,2911.5105,868.0377Z" class="color1ea6c6 svgShape"/><path fill="#4285f4" d="M2911.5105,981.0362H2337.8961a19.06006,19.06006,0,0,1-19.06-19.06h0a19.06,19.06,0,0,1,19.06-19.06h573.6144a19.05993,19.05993,0,0,1,19.06,19.06h0A19.06,19.06,0,0,1,2911.5105,981.0362Z" class="color1ea6c6 svgShape"/><path fill="#4285f4" d="M2911.5105,1094.0346H2337.8961a19.06006,19.06006,0,0,1-19.06-19.06h0a19.06,19.06,0,0,1,19.06-19.06h573.6144a19.05993,19.05993,0,0,1,19.06,19.06h0A19.06,19.06,0,0,1,2911.5105,1094.0346Z" class="color1ea6c6 svgShape"/></g><path fill="#208e3d" d="M2420.9071,2615.5162h488.7693a30.1783,30.1783,0,0,1,30.1783,30.1783v.0001a30.1782,30.1782,0,0,1-30.1782,30.1782H2420.907a30.1782,30.1782,0,0,1-30.1782-30.1782v-.0001a30.1783,30.1783,0,0,1,30.1783-30.1783Z" class="color20648e svgShape"/><path fill="#3b9e55" d="M2511.3011,2675.8728H1788.9328a43.8833,43.8833,0,0,1-40.6792-27.423l-176.4901-436.1691a21.72755,21.72755,0,0,1,20.1411-29.8774h722.3683a43.8833,43.8833,0,0,1,40.6792,27.423l176.4901,436.1691A21.72755,21.72755,0,0,1,2511.3011,2675.8728Z" class="color3b809e svgShape"/><path fill="#86a9e2" d="M2451.0923,2675.8728H1728.7241a43.8833,43.8833,0,0,1-40.6792-27.423l-176.4901-436.1691a21.72751,21.72751,0,0,1,20.1411-29.8774h722.3682a43.88344,43.88344,0,0,1,40.6793,27.423l176.4901,436.1691A21.7276,21.7276,0,0,1,2451.0923,2675.8728Z" class="color86cae2 svgShape"/><g class="color000000 svgShape" clip-path="url(#s)"><polygon fill="#fff" points="1628.936 2112.811 1972.543 2848.461 2035.378 2838.491 1686.435 2079.042 1628.936 2112.811" class="colorffffff svgShape" opacity=".24"/><polygon fill="#fff" points="1747.801 2112.686 2091.408 2848.336 2242.35 2838.367 1893.406 2078.917 1747.801 2112.686" class="colorffffff svgShape" opacity=".24"/><polygon fill="#fff" points="1954.405 2112.563 2298.012 2848.213 2360.847 2838.244 2011.903 2078.794 1954.405 2112.563" class="colorffffff svgShape" opacity=".24"/></g><ellipse cx="1980.651" cy="2446.003" fill="#fff" class="colorffffff svgShape" rx="81.837" ry="88.785" transform="rotate(-22.092 1980.651 2446.003)"/><rect width="624.441" height="159.741" x="870.486" y="2349.268" fill="#3b9e55" class="color3b809e svgShape" rx="41.455"/><g class="color000000 svgShape" clip-path="url(#t)"><path fill="#14662a" d="M941.8444,2374.9079h570.4442a39.8185,39.8185,0,0,1,39.8185,39.8185v34.0421a39.8185,39.8185,0,0,1-39.8185,39.8185H941.8443a39.8184,39.8184,0,0,1-39.8184-39.8184v-34.0422A39.8185,39.8185,0,0,1,941.8444,2374.9079Z" class="color145166 svgShape"/><path fill="#fff" d="M955.0049,2374.9079h570.4443a39.8184,39.8184,0,0,1,39.8184,39.8184v34.0422a39.8185,39.8185,0,0,1-39.8185,39.8185H955.0049a39.8185,39.8185,0,0,1-39.8185-39.8185v-34.0421A39.8185,39.8185,0,0,1,955.0049,2374.9079Z" class="colorffffff svgShape"/><g class="color000000 svgShape" clip-path="url(#u)"><path fill="#14662a" d="M952.1717,2393.741c26.4344-1.2414,52.8687-1.8909,79.3033-2.332,13.217-.2766,26.4343-.3379,39.6513-.5005l39.6517-.1658,39.6516.1577c13.217.1673,26.4343.2205,39.6516.4995,26.4343.4395,52.8686,1.0921,79.303,2.3411-26.4344,1.2488-52.8687,1.9014-79.303,2.3411-13.2173.279-26.4346.3323-39.6516.4995l-39.6516.1575-39.6517-.1656c-13.217-.1626-26.4343-.2241-39.6513-.5005C1005.0404,2395.6319,978.6061,2394.9825,952.1717,2393.741Z" class="color145166 svgShape"/><path fill="#14662a" d="M1109.1896,2429.138c14.3139-1.2415,28.6279-1.8909,42.9416-2.332,7.157-.2764,14.314-.3379,21.471-.5005l21.4707-.1656q21.47085-.0267,42.9419.657c14.3137.4397,28.6277,1.0923,42.9416,2.3411-14.3139,1.249-28.6279,1.9016-42.9416,2.341q-21.471.6519-42.9419.6573l-21.4707-.1658c-7.157-.1626-14.314-.2239-21.471-.5005C1137.8175,2431.0289,1123.5035,2430.3794,1109.1896,2429.138Z" class="color145166 svgShape"/><path fill="#14662a" d="M960.7941,2451.6016c14.3139-1.2414,28.6279-1.8909,42.9416-2.332,7.157-.2764,14.314-.3379,21.471-.5005l21.4707-.1658q21.47085-.0264,42.9419.6572c14.3137.4395,28.6276,1.0921,42.9416,2.3411-14.314,1.2488-28.6279,1.9016-42.9416,2.3411q-21.471.65175-42.9419.6572l-21.4707-.1658c-7.157-.1626-14.314-.2241-21.471-.5005C989.422,2453.4925,975.108,2452.8431,960.7941,2451.6016Z" class="color145166 svgShape"/><path fill="#14662a" d="M1293.663,2406.6746c14.3139-1.2414,28.6276-1.8909,42.9416-2.3323,7.157-.2763,14.314-.3376,21.471-.5002l21.4707-.1658q21.47085-.0264,42.9416.6572c14.314.4395,28.6279,1.0921,42.9417,2.3411-14.3138,1.2488-28.6277,1.9014-42.9417,2.3408q-21.47055.6522-42.9416.6573l-21.4707-.1656c-7.157-.1626-14.314-.2241-21.471-.5005C1322.2906,2408.5655,1307.9769,2407.9158,1293.663,2406.6746Z" class="color145166 svgShape"/><path fill="#14662a" d="M1147.3097,2464.5352c24.4805-1.2415,48.9609-1.8909,73.4414-2.332,12.2402-.2766,24.4805-.3379,36.7207-.5005l36.7207-.1658,36.7207.1575c12.2402.1675,24.4805.2207,36.7207.4997,24.4805.4395,48.9609,1.0921,73.4414,2.3411-24.4805,1.2488-48.9609,1.9014-73.4414,2.3411-12.2402.279-24.4805.3322-36.7207.4995l-36.7207.1574-36.7207-.1655c-12.2402-.1626-24.4805-.2241-36.7207-.5005C1196.2706,2466.4261,1171.7902,2465.7767,1147.3097,2464.5352Z" class="color145166 svgShape"/></g></g><path fill="#34a853" d="M911.941,2509.0084h541.5314a41.4548,41.4548,0,0,1,41.4548,41.4548v76.831a41.4549,41.4549,0,0,1-41.4549,41.4549H911.941a41.4548,41.4548,0,0,1-41.4548-41.4548v-76.8311A41.4548,41.4548,0,0,1,911.941,2509.0084Z" class="color3b9b66 svgShape"/><g class="color000000 svgShape" clip-path="url(#v)"><path fill="#126027" d="M941.8443,2534.6486h570.4443a39.8185,39.8185,0,0,1,39.8185,39.8185v34.0421a39.8185,39.8185,0,0,1-39.8185,39.8185H941.8443a39.8184,39.8184,0,0,1-39.8184-39.8184V2574.467a39.8184,39.8184,0,0,1,39.8184-39.8184Z" class="color126034 svgShape"/><path fill="#fff" d="M955.0048,2534.6486h570.4444a39.8184,39.8184,0,0,1,39.8184,39.8184v34.0423a39.8184,39.8184,0,0,1-39.8184,39.8184H955.0049a39.8185,39.8185,0,0,1-39.8185-39.8185V2574.467A39.8184,39.8184,0,0,1,955.0048,2534.6486Z" class="colorffffff svgShape"/><g class="color000000 svgShape" clip-path="url(#w)"><path fill="#14662a" d="M952.1717,2553.4817c26.4344-1.2414,52.8687-1.8908,79.3033-2.332,13.217-.2766,26.4343-.3379,39.6513-.5005l39.6517-.1658,39.6516.1578c13.217.1672,26.4343.2204,39.6516.4995,26.4343.4394,52.8686,1.092,79.303,2.341-26.4344,1.2488-52.8687,1.9016-79.303,2.3411-13.2173.2791-26.4346.3323-39.6516.4995l-39.6516.1575-39.6517-.1655c-13.217-.1626-26.4343-.2242-39.6513-.5005C1005.0404,2555.3726,978.6061,2554.7232,952.1717,2553.4817Z" class="color145166 svgShape"/><path fill="#14662a" d="M1109.1896,2588.8787c14.3139-1.2414,28.6279-1.8909,42.9416-2.332,7.157-.2764,14.314-.3379,21.471-.5005l21.4707-.1655q21.47085-.02685,42.9419.6569c14.3137.4397,28.6277,1.0923,42.9416,2.3411-14.3139,1.249-28.6279,1.9016-42.9416,2.3411q-21.471.65175-42.9419.6572l-21.4707-.1658c-7.157-.1626-14.314-.2239-21.471-.5005C1137.8175,2590.7696,1123.5035,2590.1202,1109.1896,2588.8787Z" class="color145166 svgShape"/><path fill="#14662a" d="M960.7941,2611.3423c14.3139-1.2414,28.6279-1.8908,42.9416-2.332,7.157-.2764,14.314-.3379,21.471-.5005l21.4707-.1658q21.47085-.02625,42.9419.6573c14.3137.4394,28.6276,1.092,42.9416,2.341-14.314,1.2488-28.6279,1.9016-42.9416,2.3411q-21.471.6519-42.9419.6572l-21.4707-.1658c-7.157-.1625-14.314-.2241-21.471-.5004C989.422,2613.2332,975.108,2612.5838,960.7941,2611.3423Z" class="color145166 svgShape"/><path fill="#14662a" d="M1293.663,2566.4153c14.3139-1.2414,28.6276-1.8908,42.9416-2.3322,7.157-.2764,14.314-.3377,21.471-.5003l21.4707-.1658q21.47085-.02625,42.9416.6573c14.314.4394,28.6279,1.092,42.9417,2.341-14.3138,1.2488-28.6277,1.9014-42.9417,2.3411q-21.47055.6519-42.9416.657l-21.4707-.1656c-7.157-.1625-14.314-.2241-21.471-.5004C1322.2906,2568.3062,1307.9769,2567.6565,1293.663,2566.4153Z" class="color145166 svgShape"/><path fill="#14662a" d="M1147.3097,2624.2759c24.4805-1.2414,48.9609-1.8908,73.4414-2.332,12.2402-.2766,24.4805-.3379,36.7207-.5005l36.7207-.1658,36.7207.1575c12.2402.1675,24.4805.2207,36.7207.4998,24.4805.4394,48.9609,1.092,73.4414,2.341-24.4805,1.2488-48.9609,1.9014-73.4414,2.3411-12.2402.279-24.4805.3323-36.7207.4995l-36.7207.1575-36.7207-.1656c-12.2402-.1626-24.4805-.2241-36.7207-.5004C1196.2706,2626.1668,1171.7902,2625.5174,1147.3097,2624.2759Z" class="color145166 svgShape"/></g></g><path fill="#51af6a" d="M3534.0461,2225.637s14.3135-53.5601,64.6415-62.7946,68.7971,44.9067,48.4812,83.1702-67.8736,77.9718-131.5917,95.5174Z" class="color51af63 svgShape"/><g class="color000000 svgShape" clip-path="url(#x)"><path fill="none" stroke="#004f15" stroke-miterlimit="10" stroke-width="7" d="M3660.0363,2165.6322s-67.9787-31.4241-148.1424,109.0226" class="colorStroke004f07 svgStroke"/><path fill="none" stroke="#004f15" stroke-miterlimit="10" stroke-width="7" d="M3655.279,2166.9149s-88.2325,124.4139-186.3528,179.5665" class="colorStroke004f07 svgStroke"/></g><path fill="#51af6a" d="M3297.1812,2240.1095c-1.3852-.6207-30.1101-25.226-66.9501-10.317s-64.5516,53.3472-54.4836,109.4289,39.7084,94.1919,79.4167,128.3595,69.2588,45.2491,69.2588,45.2491l66.0266,2.3086v-48.0194Z" class="color51af63 svgShape"/><g class="color000000 svgShape" clip-path="url(#y)"><path fill="none" stroke="#004f15" stroke-miterlimit="10" stroke-width="7" d="M3155.9673,2251.6651s70.544,212.1759,215.4799,255.1437" class="colorStroke004f07 svgStroke"/><path fill="none" stroke="#004f15" stroke-miterlimit="10" stroke-width="7" d="M3188.674,2233.611s86.5768,123.1314,194.3167,255.8824" class="colorStroke004f07 svgStroke"/><path fill="none" stroke="#004f15" stroke-miterlimit="10" stroke-width="7" d="M3214.3264,2210.5239s127.6205,107.7399,184.6971,232.7952" class="colorStroke004f07 svgStroke"/></g><path fill="#d8bf75" d="M3359.0523,2502.672s-42.4787-79.8784-57.7156-164.3741-38.6095-199.9593,57.7156-248.4081,158.3717,17.5456,168.5297,62.7947,18.0646,101.2059,4.4804,187.4603-46.0357,162.5272-46.0357,162.5272Z" class="colorc3d875 svgShape"/><g class="color000000 svgShape" clip-path="url(#z)"><path fill="none" stroke="#fff" stroke-miterlimit="10" stroke-width="6" d="M3403.192,2059.1749s-85.6148,63.6845-73.1093,192.4902,55.7939,267.3285,55.7939,267.3285" class="colorStrokeffffff svgStroke"/><path fill="none" stroke="#fff" stroke-miterlimit="10" stroke-width="6" d="M3408.2445,2057.251s7.934,57.3343,11.7818,176.0881,5.2909,278.4398,5.2909,278.4398" class="colorStrokeffffff svgStroke"/><path fill="none" stroke="#fff" stroke-miterlimit="10" stroke-width="6" d="M3413.2971,2055.327s101.4827,50.9841,96.6729,159.686-45.2123,289.5512-45.2123,289.5512" class="colorStrokeffffff svgStroke"/></g><path fill="#f9ba02" d="M3255.9581,2513.0138l28.0438,149.0751a17.271,17.271,0,0,0,16.9732,14.0779h152.5895a17.27087,17.27087,0,0,0,16.9629-14.0238l28.5359-149.0751a17.27092,17.27092,0,0,0-16.9629-20.5179H3272.9312A17.27082,17.27082,0,0,0,3255.9581,2513.0138Z" class="colorf9ca02 svgShape"/><g class="color000000 svgShape" clip-path="url(#A)"><rect width="270.763" height="30.388" x="3244.814" y="2502.672" fill="#c10f00" class="colorc16e00 svgShape"/></g><path fill="#ffc92d" d="M3256.3167,2478.9886h242.3985a17.2709,17.2709,0,0,1,17.2709,17.2709v.0001a17.2708,17.2708,0,0,1-17.2708,17.2708H3256.3166a17.2708,17.2708,0,0,1-17.2708-17.2708v-.0001a17.2709,17.2709,0,0,1,17.2709-17.2709Z" class="colorff922d svgShape"/><path fill="#fbbc05" d="M2523.1779,862.0297a97.5099,97.5099,0,1,0-177.4484,55.8433h-.0031l35.9326,70.7595h91.2231l32.7265-70.7595h-.002A97.05456,97.05456,0,0,0,2523.1779,862.0297Z" class="colorffc801 svgShape"/><g class="color000000 svgShape" clip-path="url(#B)"><path fill="#efb200" d="M2518.1812,792.0904a8.16373,8.16373,0,0,0-12.6953,7.5407c2.6388,28.4142.7846,82.8258-47.5763,102.8939-37.5425,15.5788-66.6051,10.461-84.8421,3.0075a8.16955,8.16955,0,0,0-10.5436,11.0006l35.2874,75.1918a8.165,8.165,0,0,0,6.7283,4.6692l97.7192,7.9641a8.15824,8.15824,0,0,0,8.0144-4.5844c9.608-19.9044,44.2348-92.6436,43.8439-106.325-.4538-15.8833-8.6223-80.3242-9.0762-82.1394C2544.7733,810.2388,2530.141,800.1706,2518.1812,792.0904Z" class="coloref9900 svgShape"/><path fill="#fff" d="M2366.6941,795.653c26.6139-29.4912,60.8103-12.4798,55.3646,8.6224s-50.3727,68.5251-73.517,53.5494S2349.9031,814.2592,2366.6941,795.653Z" class="colorffffff svgShape" opacity=".48"/></g><path fill="none" stroke="#fff" stroke-miterlimit="10" stroke-width="7" d="M2407.2792,992.1765s-2.0969-68.2299-4.839-85.3277-25.0016-10.3232-24.0338,3.226,19.84,15.3235,68.7139,13.0653,15.3392-45.5532,3.0647-22.582c-4.839,8.2263-6.6133,91.6184-6.6133,91.6184" class="colorStrokeffffff svgStroke"/><path fill="#93635f" d="M2381.4514,988.0406h91.4002a0,0,0,0,1,0,0v23.987a45.7,45.7,0,0,1-45.7,45.7h-.0001a45.7001,45.7001,0,0,1-45.7001-45.7001V988.0406A0,0,0,0,1,2381.4514,988.0406Z" class="color935f7a svgShape"/><path fill="#3c6346" d="M2474.423,1004.8121h-94.1199a6.31777,6.31777,0,0,1-6.3178-6.3178h0a6.31783,6.31783,0,0,1,6.3178-6.3178h94.1199a6.31783,6.31783,0,0,1,6.3178,6.3178h0A6.31777,6.31777,0,0,1,2474.423,1004.8121Z" class="color633c4f svgShape"/><path fill="#3c6346" d="M2474.423,1028.2959h-94.1199a6.31783,6.31783,0,0,1-6.3178-6.3178h0a6.31783,6.31783,0,0,1,6.3178-6.3178h94.1199a6.31783,6.31783,0,0,1,6.3178,6.3178h0A6.31783,6.31783,0,0,1,2474.423,1028.2959Z" class="color633c4f svgShape"/><circle cx="3793.676" cy="1291.667" r="57.173" fill="#6185c1" class="color61c1bf svgShape" opacity=".65"/><circle cx="765.965" cy="1590.722" r="46.51" fill="#6185c1" class="color61c1bf svgShape" opacity=".65"/><circle cx="2051.603" cy="1369.003" r="67.464" fill="none" stroke="#6185c1" stroke-miterlimit="10" stroke-width="11" class="colorStroke61c1bf svgStroke" opacity=".25"/><circle cx="3861.14" cy="2182.286" r="67.464" fill="none" stroke="#6185c1" stroke-miterlimit="10" stroke-width="11" class="colorStroke61c1bf svgStroke" opacity=".25"/><path fill="#6185c1" d="M969.9823,1333.3971q5.8668,0,11.7336.0007a7.27907,7.27907,0,0,1,7.4807,7.4503q.03885,5.8665-.0063,11.7334c-.0055.6684.2367.9045.844,1.0843a67.55715,67.55715,0,0,1,14.2973,5.8978,1.14251,1.14251,0,0,0,1.6908-.2297c2.755-2.8461,5.5848-5.6199,8.3942-8.4131a7.41172,7.41172,0,0,1,10.327.2462c2.5164,2.6488,5.1621,5.1747,7.7474,7.7583,3.0011,2.9993,5.9786,6.0225,9.0031,8.998a7.36513,7.36513,0,0,1-.0205,10.3243c-2.8251,2.8179-5.6365,5.6496-8.4814,8.4473a.84651.84651,0,0,0-.1767,1.2223,67.93237,67.93237,0,0,1,6.0919,14.7597c.1549.5353.4397.6591.9661.6562q5.9088-.0327,11.8179-.0065a7.369,7.369,0,0,1,7.3594,6.0637,6.86044,6.86044,0,0,1,.0851,1.1755q-.00525,11.94435-.0242,23.8886a7.13778,7.13778,0,0,1-7.3934,7.3016c-3.9393-.0046-7.8787.0136-11.8178-.0159a.89239.89239,0,0,0-1.0379.7814,62.88663,62.88663,0,0,1-5.9287,14.3687,1.198,1.198,0,0,0,.2484,1.7547c2.8246,2.737,5.5777,5.5477,8.364,8.3243a7.254,7.254,0,0,1,.0259,10.0653c-2.6743,2.7688-5.4386,5.4506-8.161,8.1729-2.9412,2.9411-5.8509,5.9144-8.8274,8.8192a7.19018,7.19018,0,0,1-10.4057-.1539c-2.7772-2.784-5.5717-5.5508-8.3405-8.3432a.85081.85081,0,0,0-1.2135-.1874,63.775,63.775,0,0,1-14.8284,6.1355c-.5732.1489-.6318.4849-.6301.9799.0134,3.9674-.0007,7.935.0087,11.9024a7.1376,7.1376,0,0,1-7.1924,7.3343q-12.07095.04245-24.1419.0212a7.326,7.326,0,0,1-7.1006-7.5944c-.0108-3.883-.0174-7.7662.0184-11.6489.006-.641-.2352-.8495-.7991-1.0171a67.52616,67.52616,0,0,1-14.297-5.897,1.19947,1.19947,0,0,0-1.768.2346c-2.7218,2.8015-5.5196,5.529-8.2761,8.2969a7.33908,7.33908,0,0,1-10.1983.047q-3.6237-3.6528-7.2709-7.2825c-3.2791-3.2778-6.5737-6.5401-9.8373-9.8332a7.33385,7.33385,0,0,1,.0736-10.0788q4.3242-4.3185,8.6624-8.6227a.71456.71456,0,0,0,.1404-1.0189,69.55762,69.55762,0,0,1-6.1626-14.9085c-.1742-.5998-.5193-.6082-.9945-.6074-3.9058.0074-7.8118.0271-11.7173-.0082a7.2198,7.2198,0,0,1-6.4746-3.5816,6.60588,6.60588,0,0,1-1.0261-3.5123c.0121-8.1037-.0007-16.2074.0302-24.311a7.11423,7.11423,0,0,1,7.077-7.0166c4.0236-.0063,8.0474-.017,12.0709.0126.6375.0047.9344-.1584,1.1041-.8021a63.92085,63.92085,0,0,1,5.9591-14.4493,1.05374,1.05374,0,0,0-.1964-1.5527c-2.8604-2.7798-5.6705-5.612-8.4716-8.452a7.23243,7.23243,0,0,1,.002-10.0592c2.959-3.0425,6.001-6.0043,8.9991-9.0089,2.4825-2.4879,5.007-4.9367,7.4171-7.4932a7.589,7.589,0,0,1,11.5561.1934c2.5025,2.7683,5.2572,5.3083,7.8863,7.9631a.66822.66822,0,0,0,.9489.1105,65.77634,65.77634,0,0,1,14.9826-6.207c.5494-.1465.6002-.4488.5991-.9115q-.015-6.0747-.0024-12.1495a7.13142,7.13142,0,0,1,7.1367-7.1309c2.0259-.0108,4.0519-.002,6.0778-.002q2.9967-.00015,5.9934,0Zm.6712,139.4759a50.35039,50.35039,0,1,0-51.0512-49.629C919.9205,1450.6914,942.8369,1473.4539,970.6535,1472.873Z" class="color61c1bf svgShape" opacity=".65"/><path fill="#6185c1" d="M948.6751,1976.734q8.96115,0,17.9222.0011a11.11819,11.11819,0,0,1,11.4263,11.3797q.05925,8.96085-.0097,17.922c-.0083,1.021.3616,1.3817,1.2893,1.6562a103.1911,103.1911,0,0,1,21.838,9.0085,1.7452,1.7452,0,0,0,2.5827-.3508c4.208-4.3472,8.5303-8.584,12.8214-12.8505,4.2404-4.216,11.6692-3.9443,15.7738.3762,3.8437,4.0458,7.8848,7.904,11.8336,11.8502,4.584,4.5811,9.132,9.199,13.7517,13.7438a11.24972,11.24972,0,0,1-.0314,15.7697c-4.315,4.3041-8.6093,8.6294-12.9547,12.9026a1.29316,1.29316,0,0,0-.27,1.867,103.75414,103.75414,0,0,1,9.3051,22.5444c.2365.8176.6716,1.0068,1.4756,1.0023q9.02535-.0501,18.0511-.01a11.25581,11.25581,0,0,1,11.2409,9.262,10.48851,10.48851,0,0,1,.13,1.7955q-.0081,18.244-.0371,36.488a10.90229,10.90229,0,0,1-11.2929,11.1528c-6.0169-.0071-12.0341.0208-18.0508-.0243a1.363,1.363,0,0,0-1.5853,1.1935,96.05226,96.05226,0,0,1-9.0557,21.9472,1.83009,1.83009,0,0,0,.3794,2.6803c4.3144,4.1805,8.5196,8.4736,12.7754,12.7147a11.08009,11.08009,0,0,1,.0396,15.3741c-4.0848,4.229-8.307,8.3253-12.4654,12.4835-4.4924,4.4923-8.9368,9.0337-13.4832,13.4706a10.98251,10.98251,0,0,1-15.8939-.2349c-4.242-4.2524-8.5104-8.4786-12.7395-12.7437a1.29967,1.29967,0,0,0-1.8536-.2863,97.40907,97.40907,0,0,1-22.6494,9.3715c-.8754.2274-.9649.7408-.9624,1.4968.0204,6.0599-.0011,12.1201.0134,18.1801a10.90231,10.90231,0,0,1-10.986,11.2026q-18.4374.0648-36.8751.0324c-6.0542-.0103-10.8275-5.1485-10.8456-11.5999-.0166-5.9311-.0265-11.8624.0282-17.793.009-.9789-.3593-1.2975-1.2206-1.5535a103.14117,103.14117,0,0,1-21.8377-9.0072,1.83215,1.83215,0,0,0-2.7006.3583c-4.1574,4.2791-8.4307,8.4451-12.6411,12.673a11.21008,11.21008,0,0,1-15.5772.0718q-5.53485-5.57955-11.1058-11.1235c-5.0085-5.0066-10.0408-9.9896-15.0257-15.0196a11.20189,11.20189,0,0,1,.1123-15.3946q6.60495-6.59625,13.2313-13.1706a1.0915,1.0915,0,0,0,.2144-1.5564,106.24533,106.24533,0,0,1-9.4129-22.7716c-.2661-.9162-.7932-.9291-1.5191-.9277-5.9658.0112-11.9319.0413-17.8973-.0126a11.02775,11.02775,0,0,1-9.8896-5.4707,10.089,10.089,0,0,1-1.5671-5.3647c.0183-12.3778-.0013-24.7557.046-37.1334a10.86654,10.86654,0,0,1,10.8096-10.7174c6.1458-.0095,12.2919-.0259,18.4374.0193.9739.0072,1.4273-.2419,1.6865-1.2252a97.63269,97.63269,0,0,1,9.1021-22.0702,1.60966,1.60966,0,0,0-.2999-2.3718c-4.3691-4.2459-8.6613-8.5719-12.9399-12.9098a11.04721,11.04721,0,0,1,.0031-15.3647c4.5197-4.6472,9.1661-9.1711,13.7456-13.7605,3.7918-3.8,7.6478-7.5404,11.329-11.4452,5.0124-5.317,12.6257-5.2637,17.6511.2954,3.8225,4.2283,8.03,8.108,12.0458,12.163a1.02064,1.02064,0,0,0,1.4494.1688,100.46493,100.46493,0,0,1,22.885-9.4808c.8391-.2237.9167-.6854.915-1.3922q-.023-9.2787-.0037-18.5576a10.89275,10.89275,0,0,1,10.9008-10.8919c3.0944-.0165,6.189-.0031,9.2835-.0031h9.1544Zm1.0251,213.0398c41.7456-.2836,76.3977-34.7751,75.8982-77.8634-.4869-41.9923-34.9689-75.7156-76.3587-75.94a77.0084,77.0084,0,0,0-77.5165,77.9984C872.2092,2155.8929,907.2124,2190.6611,949.7002,2189.7738Z" class="color61c1bf svgShape" opacity=".65"/><path fill="#6185c1" d="M4066.2664,1626.1527q8.96115,0,17.9222.0011a11.11813,11.11813,0,0,1,11.4263,11.3797q.05925,8.9607-.0097,17.9219c-.0083,1.021.3616,1.3817,1.2893,1.6562a103.19668,103.19668,0,0,1,21.838,9.0086,1.74514,1.74514,0,0,0,2.5827-.3509c4.208-4.3471,8.5303-8.5839,12.8214-12.8504,4.2404-4.2161,11.6692-3.9443,15.7738.3761,3.8437,4.0459,7.8848,7.904,11.8336,11.8503,4.584,4.5811,9.1319,9.1989,13.7517,13.7438a11.24972,11.24972,0,0,1-.0314,15.7697c-4.315,4.3041-8.6093,8.6293-12.9547,12.9026a1.29315,1.29315,0,0,0-.27,1.867,103.74806,103.74806,0,0,1,9.305,22.5443c.2366.8176.6717,1.0068,1.4757,1.0024q9.02535-.0501,18.0511-.01a11.25545,11.25545,0,0,1,11.2408,9.2619,10.47891,10.47891,0,0,1,.1301,1.7956q-.0081,18.2439-.0371,36.488a10.90226,10.90226,0,0,1-11.2929,11.1527c-6.0169-.007-12.0341.0208-18.0508-.0243a1.36314,1.36314,0,0,0-1.5853,1.1936,96.056,96.056,0,0,1-9.0557,21.9471,1.83008,1.83008,0,0,0,.3794,2.6803c4.3144,4.1805,8.5196,8.4736,12.7754,12.7148a11.08,11.08,0,0,1,.0396,15.374c-4.0848,4.2291-8.307,8.3254-12.4654,12.4836-4.4924,4.4922-8.9368,9.0337-13.4832,13.4706a10.98243,10.98243,0,0,1-15.8939-.235c-4.2421-4.2524-8.5104-8.4785-12.7396-12.7437a1.29963,1.29963,0,0,0-1.8535-.2863,97.40042,97.40042,0,0,1-22.6494,9.3715c-.8754.2275-.9649.7408-.9624,1.4968.0204,6.06-.0011,12.1201.0133,18.1801a10.90225,10.90225,0,0,1-10.9859,11.2027q-18.4374.0648-36.8751.0323c-6.0542-.0102-10.8275-5.1485-10.8456-11.5999-.0166-5.931-.0265-11.8624.0282-17.7929.009-.979-.3594-1.2976-1.2206-1.5535a103.1415,103.1415,0,0,1-21.8377-9.0073,1.83217,1.83217,0,0,0-2.7006.3584c-4.1574,4.279-8.4307,8.4451-12.6411,12.6729a11.21008,11.21008,0,0,1-15.5772.0719q-5.53485-5.5797-11.1058-11.1236c-5.0085-5.0066-10.0408-9.9896-15.0257-15.0195a11.202,11.202,0,0,1,.1123-15.3947q6.6048-6.5961,13.2313-13.1705a1.09151,1.09151,0,0,0,.2144-1.5564,106.24955,106.24955,0,0,1-9.4129-22.7716c-.2661-.9163-.7932-.9291-1.5191-.9278-5.9658.0112-11.9319.0414-17.8973-.0125a11.028,11.028,0,0,1-9.8896-5.4707,10.09,10.09,0,0,1-1.5672-5.3647c.0184-12.3779-.0012-24.7558.0461-37.1335a10.86654,10.86654,0,0,1,10.8096-10.7174c6.1458-.0095,12.2919-.0259,18.4374.0194.9739.0071,1.4273-.242,1.6865-1.2253a97.63458,97.63458,0,0,1,9.1021-22.0702,1.60955,1.60955,0,0,0-.2999-2.3717c-4.3691-4.2459-8.6613-8.5719-12.9399-12.9098a11.04721,11.04721,0,0,1,.0031-15.3647c4.5197-4.6473,9.1661-9.1711,13.7456-13.7605,3.7918-3.8,7.6478-7.5404,11.3289-11.4453,5.0125-5.317,12.6258-5.2637,17.6512.2954,3.8225,4.2284,8.03,8.108,12.0458,12.163a1.02064,1.02064,0,0,0,1.4494.1688,100.46493,100.46493,0,0,1,22.885-9.4808c.8391-.2237.9167-.6854.915-1.3922q-.0231-9.2787-.0038-18.5575a10.893,10.893,0,0,1,10.9009-10.892c3.0944-.0164,6.189-.003,9.2835-.0031h9.1544Zm1.0251,213.0397c41.7455-.2835,76.3977-34.7751,75.8982-77.8634-.4869-41.9923-34.9689-75.7155-76.3587-75.9399a77.00828,77.00828,0,0,0-77.5165,77.9984C3989.8005,1805.3115,4024.8037,1840.0797,4067.2915,1839.1924Z" class="color61c1bf svgShape" opacity=".65"/></svg>