<svg width="166" height="146" viewBox="0 0 166 146" fill="none" xmlns="http://www.w3.org/2000/svg">
<g opacity="0.5">
<circle cx="161.804" cy="141.964" r="3.75615" transform="rotate(-180 161.804 141.964)" fill="#43BA7F"/>
<circle cx="161.804" cy="114.452" r="3.75615" transform="rotate(-180 161.804 114.452)" fill="#43BA7F"/>
<circle cx="161.804" cy="86.9397" r="3.75615" transform="rotate(-180 161.804 86.9397)" fill="#43BA7F"/>
<circle cx="161.804" cy="59.4274" r="3.75615" transform="rotate(-180 161.804 59.4274)" fill="#43BA7F"/>
<circle cx="161.804" cy="31.9152" r="3.75615" transform="rotate(-180 161.804 31.9152)" fill="#43BA7F"/>
<circle cx="161.804" cy="4.40278" r="3.75615" transform="rotate(-180 161.804 4.40278)" fill="#43BA7F"/>
<circle cx="122.293" cy="141.964" r="3.75615" transform="rotate(-180 122.293 141.964)" fill="#43BA7F"/>
<circle cx="122.293" cy="114.452" r="3.75615" transform="rotate(-180 122.293 114.452)" fill="#43BA7F"/>
<circle cx="122.293" cy="86.9397" r="3.75615" transform="rotate(-180 122.293 86.9397)" fill="#43BA7F"/>
<circle cx="122.293" cy="59.4274" r="3.75615" transform="rotate(-180 122.293 59.4274)" fill="#43BA7F"/>
<circle cx="122.293" cy="31.9152" r="3.75615" transform="rotate(-180 122.293 31.9152)" fill="#43BA7F"/>
<circle cx="122.293" cy="4.40278" r="3.75615" transform="rotate(-180 122.293 4.40278)" fill="#43BA7F"/>
<circle cx="82.779" cy="141.964" r="3.75615" transform="rotate(-180 82.779 141.964)" fill="#43BA7F"/>
<circle cx="82.781" cy="114.452" r="3.75615" transform="rotate(-180 82.781 114.452)" fill="#43BA7F"/>
<circle cx="82.779" cy="86.9397" r="3.75615" transform="rotate(-180 82.779 86.9397)" fill="#43BA7F"/>
<circle cx="82.779" cy="59.4274" r="3.75615" transform="rotate(-180 82.779 59.4274)" fill="#43BA7F"/>
<circle cx="82.781" cy="31.9152" r="3.75615" transform="rotate(-180 82.781 31.9152)" fill="#43BA7F"/>
<circle cx="82.781" cy="4.40303" r="3.75615" transform="rotate(-180 82.781 4.40303)" fill="#43BA7F"/>
<circle cx="43.2673" cy="141.964" r="3.75615" transform="rotate(-180 43.2673 141.964)" fill="#43BA7F"/>
<circle cx="43.2673" cy="114.452" r="3.75615" transform="rotate(-180 43.2673 114.452)" fill="#43BA7F"/>
<circle cx="43.2673" cy="86.9397" r="3.75615" transform="rotate(-180 43.2673 86.9397)" fill="#43BA7F"/>
<circle cx="43.2673" cy="59.4274" r="3.75615" transform="rotate(-180 43.2673 59.4274)" fill="#43BA7F"/>
<circle cx="43.2673" cy="31.9152" r="3.75615" transform="rotate(-180 43.2673 31.9152)" fill="#43BA7F"/>
<circle cx="43.2673" cy="4.40303" r="3.75615" transform="rotate(-180 43.2673 4.40303)" fill="#43BA7F"/>
<circle cx="3.75557" cy="141.964" r="3.75615" transform="rotate(-180 3.75557 141.964)" fill="#43BA7F"/>
<circle cx="3.75557" cy="114.452" r="3.75615" transform="rotate(-180 3.75557 114.452)" fill="#43BA7F"/>
<circle cx="3.75557" cy="86.9394" r="3.75615" transform="rotate(-180 3.75557 86.9394)" fill="#43BA7F"/>
<circle cx="3.75557" cy="59.4272" r="3.75615" transform="rotate(-180 3.75557 59.4272)" fill="#43BA7F"/>
<circle cx="3.75557" cy="31.915" r="3.75615" transform="rotate(-180 3.75557 31.915)" fill="#43BA7F"/>
<circle cx="3.75557" cy="4.40278" r="3.75615" transform="rotate(-180 3.75557 4.40278)" fill="#43BA7F"/>
</g>
</svg>
