<svg xmlns="http://www.w3.org/2000/svg" data-name="Layer 1" viewBox="8.408 42.582 283.193 214.844"><path fill="#f5f5f7" d="M32.27 228s-12.79-12.43 4.47-21.73-8.31-13.77-12.07-29.64 19-17.6 12.43-34.5-12.63-29.26-.18-43.63c15.69-18.1 43 .85 51.23-24.32s36.57-25.79 54.14-15.82 15.82 30.31 38.27 30.31 42.78-13.77 61.74 2.1-9.34 31.38 17.93 46.89 9.7 30.67 9.34 48.95 21 14.44-1.74 42.07Z"/><path fill="#f5f5f7" d="M168.49 73.14c6.9 3.06 10.55 9 22.75 7.38s6.17-20.16-8.58-21.86-29.82 7.55-14.17 14.48Z"/><path fill="#fff" d="M90.57 129.38c-1.18-19.72 8.54-29.91 23.69-20.7s-22.08 47.61-23.69 20.7ZM109 71.26c-2.13-8.81 10.86-11.53 10.68-2.06S111 79.22 109 71.26Z"/><circle cx="70.54" cy="75.56" r="6.57" fill="#f5f5f7"/><ellipse cx="25.39" cy="145.25" fill="#f5f5f7" rx="4.11" ry="4.47"/><circle cx="208.14" cy="75.56" r="2.41" fill="#f5f5f7"/><circle cx="154.72" cy="59.37" r="2.41" fill="#f5f5f7"/><circle cx="260.57" cy="122.81" r="5.86" fill="#f5f5f7"/><g><path fill="#dfe9f4" d="M97.45 178.02h29.46v52.75H97.45z"/><path fill="#fff" d="M103.01 183.87h18.28v39.46h-18.28z"/><path fill="#92b1dd" d="M230.36 97.78v128.9a6.26 6.26 0 0 1-.14 1.31 6.11 6.11 0 0 1-1.86 3.22h-85.47A6.11 6.11 0 0 1 141 228a6.26 6.26 0 0 1-.14-1.31V97.78a6.11 6.11 0 0 1 6.14-6.11h77.25a6.12 6.12 0 0 1 6.11 6.11Z"/><path fill="#cedbee" d="M225.33 97.78v128.9a6.26 6.26 0 0 1-.14 1.31 6.11 6.11 0 0 1-1.86 3.22h-86.89a6.11 6.11 0 0 1-1.86-3.22 6.26 6.26 0 0 1-.14-1.31V97.78a6.11 6.11 0 0 1 6.11-6.11h78.67a6.1 6.1 0 0 1 6.11 6.11Z"/><path fill="#fff" d="M139.76 99.94H220v124.59h-80.24z"/><path fill="#f5f5f7" d="M220 99.94v31l-51.74 18s-39.52-23.25 2.32-29.41c30.71-4.53 41.48-14.55 45-19.56Z"/></g><g><path fill="#92b1dd" d="M140 222.7c-.42.65-.92 1.11-1.32.6-.7-.87.6-3 1.2-3.89-.7-13-3.58-20.73-6.73-25.37-.7 1.62-2.17 4.62-3.1 3.56s.2-4.53.87-6.33c-3.8-4-7.35-4.13-7.35-4.13-.4 1.31-.74 2.59-1 3.83.75.47 3.32 2.17 3 3.59-.21 1-2.09.46-3.62-.12-3 23.75 18.06 33.11 18.06 33.11-.01-1.69-.01-3.31-.01-4.85Zm-13.4-18.49c-1.56 1.56-3.4-2.28-3.4-2.28-.74-3.06 4.96.72 3.4 2.28Zm-2 3.85c.35-1.2 5.19.8 4.56 3s-5.24-.55-4.53-3Zm7.24 9c-.31 1.16-3 .31-3-1.56-.01-1.5 3.35.42 3.03 1.59Zm-.49-13.55c0-3.34 2.82-5.32 3.31-2.77s-3.28 6.96-3.28 2.8Zm2.28 7.87c-.83-2.65 1.79-5.45 3.08-4.16s-2.2 6.92-3.05 4.19Zm2.55 6.12c-.82-1.42.67-4.16 1.74-3.26s-.73 4.99-1.71 3.29Z"/><path fill="#cedbee" d="M147 230.86c-2.77 0-5.46-1.5-8-4.46a40.84 40.84 0 0 1-6.17-10.64 101.74 101.74 0 0 1-5-15.74l.48-.1a100.07 100.07 0 0 0 5 15.66 40.87 40.87 0 0 0 6.09 10.51c2.64 3.06 5.4 4.49 8.23 4.26v.49Z"/><path fill="#7394bc" d="M122.05 214.81c.35 1.07.79 2.88-.28 2.95s-2.07-2.23-2.51-3.49a25.28 25.28 0 0 0-8.08.1 26.15 26.15 0 0 0 1.34 2.59c1.25-.16 3-.21 3.35.76.23.72-.71 1.26-1.76 1.61a22.11 22.11 0 0 0 3.15 3.36c1.6-.35 4.83-.94 5.37-.1.41.63-1.21 1.48-2.69 2.1 8.5 5.4 18.43 3.8 18.43 3.8-4.37-8.68-10.79-12.28-16.32-13.68Zm2.09 10.64s3-1.43 3.4-.4-4.2 1.83-3.4.4Zm3.58-3.27c-1.92.09-1.83-3.44-1.83-3.44.8-2.32 3.75 3.35 1.83 3.44Zm5.49 3.4c-1.7.09-2-3.71-2-3.71-.05-2.64 3.7 3.62 2 3.71Z"/><path fill="#cedbee" d="M144.15 229.6a24.46 24.46 0 0 1-6.71-1 45.56 45.56 0 0 1-8.69-3.62 66.32 66.32 0 0 1-9-5.81l.31-.38a64.91 64.91 0 0 0 9 5.77c4.73 2.52 11.62 5.33 17.58 4.42l.07.49a18.26 18.26 0 0 1-2.56.13Z"/><path fill="#92b1dd" d="M278.68 206.87c.36-3.35-1.25-5.7-5.89-5.68a12.39 12.39 0 0 0-2.56.29c.3 1.3.9 4.4-.19 5.1s-1.68-2.68-1.93-4.4c-11.13 4.93-13.2 26.59-13.2 26.59s-8.85 3 3.4.45c5-1.05 10.83-5.9 15-11.28-1.45-.54-3.49-1.5-2.72-2.42.92-1.1 3.63-.65 4.72-.42a26.81 26.81 0 0 0 2.5-4.82c-1.33.09-3.34 0-3.16-1.24s2.69-1.96 4.03-2.17Zm-13.47-1.05s3.6 4.72 1.36 6.46-3.49-4-3.49-4Zm.38 18.66c-.54.94-4.34 1.16-3.53-.09s4.07-.85 3.53.09Zm.2-2.3c-2.32-.36-.87-1.82 1.52-2.1 4.2-.49.81 2.46-1.52 2.1Z"/><path fill="#7394bc" d="M265.18 208.6c3-13.35-1.67-20.44-1.67-20.44-3.15 2.24-5 6.69-6.15 11.79a5.49 5.49 0 0 1 1.12.84s2.15 2.77 1.56 3.67c-.35.54-2-.61-3.18-1.92-1.8 10.92-.59 23.45-.59 23.45s-1.42 9.47 5.8-7.93c-1.1.19-2.4.27-2.24-.5.2-.95 2.1-1.46 3.12-1.67.53-1.39 1-2.72 1.38-4-1.5.45-3.27.81-3.24 0 .02-1.31 3.13-2.84 4.09-3.29Zm-.48-12.5c1.43-1-.13 5.14-1.34 4.16s.02-3.26 1.34-4.16Zm-1.93 7.64c1.6-2.61 3.44-1.12 1.48 1.12s-2.68.85-1.48-1.12Zm-2.1-6.17c-.85 0-1.48-3.35-.13-3.35 1 0 .98 3.31.13 3.35Z"/><path fill="#cedbee" d="m254.26 230-.28-.4a56 56 0 0 0 7-6.19A61.89 61.89 0 0 0 273.12 206l.45.2a57.21 57.21 0 0 1-5.88 10.08 67.08 67.08 0 0 1-6.31 7.47 55.28 55.28 0 0 1-7.12 6.25ZM256.75 221l-.43-.23a49.41 49.41 0 0 0 4.74-15.63 60.19 60.19 0 0 0 .65-8h.49a61.24 61.24 0 0 1-.65 8 59.78 59.78 0 0 1-1.61 7.7 41.59 41.59 0 0 1-3.19 8.16Z"/></g><g><path fill="#cedbee" d="M139.88 165.41h116.68v63.52H139.88z"/><path fill="#cedbee" d="M256.55 157.78v11.92H139.88V163l17.34-34.24.42-.84 1.35-2.67a2 2 0 0 0 .21-.89 1.09 1.09 0 0 0 0-.18h79.58a1.89 1.89 0 0 1 1.41 1.32Z"/><path fill="#dfe9f4" d="M139.88 168.36h77.38v60.58h-77.38z"/><path fill="#92b1dd" d="M238.76 124.06v7l-.41-.81-20 39.45h-81.72v-.34l3.24-6.4 17.34-34.24.42-.84 1.35-2.67a2 2 0 0 0 .21-.89 1.09 1.09 0 0 0 0-.18v-.09h79.59Z"/><path fill="#aec6d3" d="M240.27 126a1.91 1.91 0 0 1-.21.86l-1.3 2.57-.41.81-18.28 36.1-1.7 3.35-.92 1.82a1.9 1.9 0 1 1-3.38-1.72l.05-.1 1.7-3.35 20.7-40.88.16-.32a1.91 1.91 0 0 1 1.29-1 1.64 1.64 0 0 1 .38 0 1.9 1.9 0 0 1 .41 0 1.89 1.89 0 0 1 1.41 1.32 1.61 1.61 0 0 1 .1.54Z"/><path fill="#aec6d3" d="M262.84 170.66a1.91 1.91 0 0 1-1 1.7 1.9 1.9 0 0 1-2.55-.84l-2.7-5.33-17.79-35.14-.41-.81-1.71-3.38a1.88 1.88 0 0 1-.21-.86 2 2 0 0 1 .08-.54 1.93 1.93 0 0 1 1-1.16 2 2 0 0 1 .45-.16 2 2 0 0 1 .42 0 2.33 2.33 0 0 1 .38 0 1.91 1.91 0 0 1 1.27 1l.16.32 16.36 32.31 6.09 12a1.83 1.83 0 0 1 .16.89ZM218.83 168.78a1.72 1.72 0 0 1-1.52.92h-80.55a1.7 1.7 0 0 1-1.71-1.68 1.69 1.69 0 0 1 1.71-1.68h80.55a1.68 1.68 0 0 1 1.52 2.44Z"/><path fill="#7394bc" d="M178.48 132.78h47.61v.49h-47.61zM171.26 144.64h47.61v.49h-47.61zM163.21 156.36h47.61v.49h-47.61z"/><path fill="#fff" d="M243.86 228.66h-12v-15.74a6 6 0 0 1 6-6 6 6 0 0 1 6 6v15.74ZM148.73 180.65h21.06v13.72h-21.06zM148.73 203.85h21.06v13.72h-21.06zM184.49 180.65h21.06v13.72h-21.06zM184.49 203.85h21.06v13.72h-21.06z"/><path fill="#cedbee" d="M170.23 217.53h-21.77v-14.17h21.77Zm-21.06-.71h20.34v-12.74h-20.34Z"/><path fill="#cedbee" d="M159 203.78h.72v13.39H159zM170.34 194.76h-22v-14.4h22Zm-21.05-.94h20.12V181.3h-20.12Z"/><path fill="#cedbee" d="M158.88 180.89h.94v13.39h-.94zM206.19 194.76h-22v-14.4h22Zm-21.05-.94h20.12V181.3h-20.12v12.52Z"/><path fill="#cedbee" d="M194.74 180.89h.94v13.39h-.94zM206.19 217.64h-22v-14.39h22Zm-21.05-.93h20.12v-12.52h-20.12v12.52Z"/><path fill="#cedbee" d="M194.74 203.78h.94v13.39h-.94z"/><path fill="#aec6d3" d="M169.78 217.88h-21.62v-14.82h22.37v14.77h-.45Zm-20.75-.6h20.45l.45-.05v-13.57h-21.17v13.57h.24ZM170.64 195.05h-22.59v-15h22.59Zm-22-.6H170v-13.79h-21.35ZM206.49 195.05H183.9v-15h22.59Zm-22-.6h21.39v-13.79H184.5ZM206.49 217.94H183.9V203h22.59Zm-22-.6h21.39v-13.79H184.5Z"/><path fill="#fff" d="M223.6 180.12h8.45v13.77h-8.45z"/><path fill="#aec6d3" d="M232.66 194.49h-9.57v-14.66h9.57Zm-8.63-.94h7.69v-12.79H224Z"/><path fill="#aec6d3" d="M227.29 180.35h.94v13.49h-.94z"/><path fill="#aec6d3" d="M223.5 186.92h8.66v.94h-8.66z"/><path fill="#fff" d="M243.1 180.12h8.45v13.77h-8.45z"/><path fill="#aec6d3" d="M252.15 194.49h-9.57v-14.66h9.57Zm-8.63-.94h7.69v-12.79h-7.69Z"/><path fill="#aec6d3" d="M246.78 180.35h.94v13.49h-.94z"/><path fill="#aec6d3" d="M242.99 186.92h8.66v.94h-8.66z"/><circle cx="238.8" cy="163.58" r="6.53" fill="#fff"/><path fill="#aec6d3" d="M238.94 156.22a7.35 7.35 0 1 0 7.35 7.35 7.36 7.36 0 0 0-7.35-7.35Zm.6 6.75v-5.51a6.15 6.15 0 0 1 5.51 5.51Zm-1.21-5.51V163h-5.51a6.16 6.16 0 0 1 5.51-5.54Zm0 6.72v5.51a6.15 6.15 0 0 1-5.51-5.51Zm1.21 5.51v-5.51h5.51a6.14 6.14 0 0 1-5.51 5.51ZM139.88 220.56a.29.29 0 0 1-.3-.3V171a.3.3 0 0 1 .3-.3.31.31 0 0 1 .3.3v49.29a.3.3 0 0 1-.3.27ZM217.26 226.56a.29.29 0 0 1-.3-.3v-50.44a.3.3 0 0 1 .3-.3.31.31 0 0 1 .3.3v50.44a.3.3 0 0 1-.3.3ZM256.53 228.6H140a.29.29 0 0 1-.3-.3.3.3 0 0 1 .3-.3h116.53a.31.31 0 0 1 .3.3.3.3 0 0 1-.3.3ZM231.88 222.47a.29.29 0 0 1-.3-.3v-8.88a.29.29 0 0 1 .3-.3.3.3 0 0 1 .3.3v8.88a.3.3 0 0 1-.3.3ZM243.86 226.2a.29.29 0 0 1-.3-.3v-13.6a4.51 4.51 0 0 0-1.32-3.38c-1.89-1.8-5.2-1.68-5.23-1.68a.3.3 0 0 1 0-.6c.14 0 3.59-.14 5.67 1.85a5 5 0 0 1 1.51 3.81v13.6a.3.3 0 0 1-.33.3Z"/><path fill="#7394bc" d="M205.53 170H145a.29.29 0 0 1-.3-.3.3.3 0 0 1 .3-.3h60.55a.31.31 0 0 1 .3.3.3.3 0 0 1-.32.3ZM216.27 166.56h-53a.29.29 0 0 1-.3-.3.3.3 0 0 1 .3-.3h52.63l16.9-33.82a.3.3 0 1 1 .53.27ZM254.72 162.87a.3.3 0 0 1-.27-.16l-16-31.51a.3.3 0 1 1 .53-.27l16 31.51a.29.29 0 0 1-.13.4.31.31 0 0 1-.13.03ZM231.68 164.31a.29.29 0 0 1-.3-.3c0-7.54 7.25-8.07 7.33-8.08a.3.3 0 0 1 .31.28.29.29 0 0 1-.28.32c-.27 0-6.76.51-6.76 7.48a.3.3 0 0 1-.3.3ZM238.73 171.23a.3.3 0 0 1-.3-.28.3.3 0 0 1 .28-.32c.3 0 7.32-.54 7.32-7.07a.3.3 0 0 1 .3-.3.31.31 0 0 1 .3.3c0 7.1-7.81 7.67-7.89 7.67Z"/></g><g><path fill="#273657" d="M176.66 115 150.8 96.75l-21.58 17.07-.5-.63 22.05-17.44 26.35 18.59-.46.66z"/><path fill="#f28c70" d="M180 158h-54.25a4.38 4.38 0 0 1-4.38-4.38v-37.34a4.39 4.39 0 0 1 4.38-4.39H180a4.38 4.38 0 0 1 4.38 4.38v37.33A4.37 4.37 0 0 1 180 158Z"/><path fill="#d66c54" d="M126.2 117.17h53.91v36.43H126.2z"/><path fill="#fccd89" d="M128.07 118.92h50.07v32.95h-50.07z"/><path fill="#fff" d="M141.52 124.75v2.44h4.27v1.71h-4.27v3.36h-2.14V123h7v1.71h-4.83ZM149.6 131.81a4.59 4.59 0 0 1-2.46-4.16 4.72 4.72 0 0 1 .65-2.45 4.66 4.66 0 0 1 1.81-1.71 5.42 5.42 0 0 1 2.59-.62 5.35 5.35 0 0 1 2.58.62 4.71 4.71 0 0 1 0 8.32 5.7 5.7 0 0 1-5.17 0Zm4.06-1.58a2.67 2.67 0 0 0 1-1 3.27 3.27 0 0 0 0-3.06 2.74 2.74 0 0 0-1-1.05 3.07 3.07 0 0 0-3 0 2.67 2.67 0 0 0-1 1.05 3.27 3.27 0 0 0 0 3.06 2.74 2.74 0 0 0 1 1 3.07 3.07 0 0 0 3 0ZM164.73 132.27 163 129.7h-2v2.57h-2.14V123h4a5.15 5.15 0 0 1 2.13.41 3.06 3.06 0 0 1 1.88 2.94 3 3 0 0 1-1.87 2.95l2.07 3Zm-.55-7.07a2.21 2.21 0 0 0-1.46-.42H161V128h1.74a2.21 2.21 0 0 0 1.46-.42 1.48 1.48 0 0 0 .5-1.19 1.4 1.4 0 0 0-.52-1.19ZM141.17 148.09l-1.78-2.57h-2v2.57h-2.14v-9.23h4a5.15 5.15 0 0 1 2.13.41 3.06 3.06 0 0 1 1.88 2.94 3 3 0 0 1-1.89 2.91l2.07 3Zm-.54-7.07a2.21 2.21 0 0 0-1.46-.42h-1.74v3.22h1.74a2.21 2.21 0 0 0 1.46-.42 1.48 1.48 0 0 0 .5-1.19 1.43 1.43 0 0 0-.5-1.21ZM152.13 146.38v1.71H145v-9.23h7v1.71h-4.9v2h4.28v1.66h-4.28v2.14h5ZM162.29 138.86v9.23h-1.75l-4.6-5.6v5.6h-2.11v-9.23h1.77l4.59 5.6v-5.6ZM166.39 140.6h-2.95v-1.74h8v1.74h-2.95v7.49h-2.14Z"/><circle cx="151.01" cy="98.44" r="3.22" fill="#d66c54"/><path fill="#d66c54" d="M184.43 143.76a.29.29 0 0 1-.3-.3v-27.2a.3.3 0 0 1 .3-.3.31.31 0 0 1 .3.3v27.2a.3.3 0 0 1-.3.3ZM163.44 112.2h-27.71a.29.29 0 0 1-.3-.3.3.3 0 0 1 .3-.3h27.71a.31.31 0 0 1 .3.3.3.3 0 0 1-.3.3ZM121.37 152.16a.29.29 0 0 1-.3-.3V122a.3.3 0 0 1 .3-.3.31.31 0 0 1 .3.3v29.84a.3.3 0 0 1-.3.32Z"/><path fill="#f28c70" d="M139.43 133.16a.2.2 0 0 1-.2-.2v-10.1h7.1a.2.2 0 0 1 0 .4h-6.7V133a.2.2 0 0 1-.2.16ZM152.88 132.63a.19.19 0 0 1-.2-.2.2.2 0 0 1 .2-.2 4.15 4.15 0 0 0 4.15-4.57.2.2 0 0 1 .4 0 5 5 0 0 1-1.32 3.65 4.9 4.9 0 0 1-3.23 1.32ZM167 126.56a.2.2 0 0 1-.2-.2 2.53 2.53 0 0 0-.9-2c-2.07-1.79-7-1.09-7.07-1.08a.2.2 0 0 1-.23-.17.2.2 0 0 1 .17-.23c.21 0 5.18-.73 7.39 1.18a2.92 2.92 0 0 1 1 2.32.2.2 0 0 1-.16.18ZM164.73 132.46a.2.2 0 0 1-.16-.07l-1.74-2.13h-1.4a.2.2 0 1 1 0-.4H163l1.86 2.27a.21.21 0 0 1 0 .29.17.17 0 0 1-.13.04ZM135.23 147.08a.2.2 0 0 1-.2-.2v-7a.2.2 0 1 1 .4 0v7a.2.2 0 0 1-.2.2ZM137.43 148.26a.2.2 0 0 1-.2-.2v-2.7h2.1a.2.2 0 0 1 0 .4h-1.7v2.3a.2.2 0 0 1-.2.2ZM143.26 141.69a.2.2 0 0 1-.2-.15c-.8-3.24-4.49-2.58-4.65-2.55a.2.2 0 0 1-.23-.16.21.21 0 0 1 .16-.24s4.22-.76 5.11 2.85a.21.21 0 0 1-.15.25ZM145 145.34a.2.2 0 0 1-.2-.2v-6.48h6.5a.2.2 0 0 1 0 .4h-6.1v6.08a.2.2 0 0 1-.2.2Z"/><path fill="#f28c70" d="M150.21 142.76h-3.08a.2.2 0 0 1 0-.4h3.08a.2.2 0 0 1 0 .4ZM152.13 146.56h-5.2v-2.3a.2.2 0 0 1 .4 0v1.9h4.8a.2.2 0 1 1 0 .4ZM153.83 148.26a.2.2 0 0 1-.2-.2v-9.4h2.09l.06.08 4.6 5.8a.2.2 0 0 1 0 .28.21.21 0 0 1-.28 0l-4.54-5.73H154v9a.2.2 0 0 1-.17.17ZM162.29 148.26a.2.2 0 0 1-.2-.2v-7a.2.2 0 0 1 .4 0v7a.2.2 0 0 1-.2.2ZM166.43 145.46a.2.2 0 0 1-.2-.2v-4.6h-3v-1.8a.2.2 0 1 1 .4 0v1.4h3v5a.2.2 0 0 1-.2.2ZM171.53 140.66h-3a.2.2 0 0 1 0-.4h3a.2.2 0 1 1 0 .4Z"/><path fill="#ffb2a8" d="M120.34 133.36s3.08-2 3.71-1.12-3 4-3 4Z"/></g><g><circle cx="111.02" cy="90.73" r="13.5" fill="#fccd89"/><circle cx="111.02" cy="90.73" r="11.2" fill="#d66c54"/><circle cx="111.02" cy="90.73" r="9.97" fill="#f28c70"/><path fill="#fccd89" d="M114.19 94.91a4.22 4.22 0 0 1-2.6 1v1.7h-1v-1.7a7.46 7.46 0 0 1-2.08-.41 4.44 4.44 0 0 1-1.57-.9l.56-1.17a4.45 4.45 0 0 0 1.37.82 5.64 5.64 0 0 0 1.73.38V91.1a11 11 0 0 1-1.75-.56 3 3 0 0 1-1.17-.89 2.33 2.33 0 0 1-.47-1.53 2.7 2.7 0 0 1 .87-2 4 4 0 0 1 2.54-1v-1.7h1v1.7a6.55 6.55 0 0 1 1.66.27 4.83 4.83 0 0 1 1.39.65l-.5 1.2a5.32 5.32 0 0 0-2.56-.84v3.51a14.23 14.23 0 0 1 1.81.56 3.26 3.26 0 0 1 1.2.87 2.3 2.3 0 0 1 .49 1.54 2.74 2.74 0 0 1-.92 2.03Zm-5-5.84a4.29 4.29 0 0 0 1.43.6v-3.25a2.58 2.58 0 0 0-1.44.56 1.41 1.41 0 0 0-.48 1.08 1.18 1.18 0 0 0 .5 1.01Zm3.91 5a1.34 1.34 0 0 0 .5-1.08 1.16 1.16 0 0 0-.52-1 5.13 5.13 0 0 0-1.5-.62v3.24a2.73 2.73 0 0 0 1.53-.55Z"/><circle cx="134.87" cy="78.55" r="6.3" fill="#fccd89"/><circle cx="134.87" cy="78.55" r="4.75" fill="#d66c54"/><circle cx="134.87" cy="78.55" r="4.23" fill="#f28c70"/><path fill="#fccd89" d="M136.21 80.32a1.81 1.81 0 0 1-1.1.41v.72h-.41v-.72a3.2 3.2 0 0 1-.88-.18 2 2 0 0 1-.67-.38l.24-.5a1.83 1.83 0 0 0 .61.33 2.27 2.27 0 0 0 .73.16V78.7a3.78 3.78 0 0 1-.74-.24 1.24 1.24 0 0 1-.5-.38 1 1 0 0 1-.2-.65 1.1 1.1 0 0 1 .37-.85 1.72 1.72 0 0 1 1.07-.41v-.73h.41v.72a3.2 3.2 0 0 1 .7.11 2.29 2.29 0 0 1 .59.27l-.21.51a2.2 2.2 0 0 0-1.08-.36v1.49a6.57 6.57 0 0 1 .77.24 1.34 1.34 0 0 1 .51.37 1 1 0 0 1 .21.65 1.15 1.15 0 0 1-.42.88Zm-2.11-2.47a1.85 1.85 0 0 0 .61.26v-1.38a1 1 0 0 0-.61.24.59.59 0 0 0-.2.46.48.48 0 0 0 .2.42Zm1.65 2.15a.57.57 0 0 0 .21-.46.48.48 0 0 0-.22-.43 2.1 2.1 0 0 0-.63-.26v1.37a1.15 1.15 0 0 0 .64-.22Z"/></g><g><path fill="#ffb2a8" d="M118.64 141.09a34.28 34.28 0 0 1 0-4.43c.13-2.33 1.83-4.06 3.26-3.67s.94 7.39.94 7.39Z"/><path fill="#ffb2a8" d="M123.92 142.83s-1 2.2-2.68 5.34c-4 7.5-11.63 20.36-17.75 21.26a4.29 4.29 0 0 1-1.29 0c-6.07-.93-3.24-6.27-.93-9.47a29.75 29.75 0 0 1 2-2.42l1.47-1.6 16.1-17.49Z"/><path fill="#f27c85" d="M121.23 148.17c-4 7.5-11.63 20.36-17.75 21.26-.68-2.47-1.75-6.69-2.21-9.47a29.75 29.75 0 0 1 2-2.42l-.09-.67c2.19.49 2.22 4.93 4.2 6.48 3.04 2.42 11.21-11.47 13.85-15.18Z"/><path fill="#6cc58d" d="M105.63 170.28s-4.87 2-12.29-.76c-4.3-1.58-5.65-7.52-6-12.24a40.81 40.81 0 0 1 0-6.18s14.71 3.76 16.36 5.32c.87.82 1.36 4.57 1.64 8 .22 3.07.29 5.86.29 5.86Z"/><path fill="#3e9a83" d="M105.63 170.28s-4.87 2-12.29-.76c-4.3-1.58-5.65-7.52-6-12.24l1.59-1.89a74.85 74.85 0 0 1 8.63 10.28c3.34 4.94 7.15 2.72 7.77-1.28.23 3.1.3 5.89.3 5.89Z" opacity=".78"/><path fill="#2c4fa0" d="M91.71 230.64s-2.74.28-6.77.57H58.51a20.62 20.62 0 0 1-4.22-1c-1.42-.55-2.31-1.28-2.47-2.21a2.25 2.25 0 0 1 0-.58c1-7.47 4.83-16.76 4.83-16.76s32.77-1 34 1.83a21.76 21.76 0 0 1 .8 5.5c.21 3.37.26 7.41.26 10 .01 1.6 0 2.65 0 2.65Z"/><path fill="#273657" d="M91.46 218a47.46 47.46 0 0 1-24.94 2c-10.74-2.21-12.14 6.28-12.23 10.25-1.7-.66-2.65-1.57-2.48-2.79 1-7.47 4.83-16.76 4.83-16.76s32.77-1 34 1.83a21.77 21.77 0 0 1 .82 5.47Z" opacity=".58"/><path fill="#6cc58d" d="M92 189.19c.31 12.34 0 26.37 0 26.37s-1.74 1.92-16.41 2.1a38.58 38.58 0 0 1-10.91-1.31c-6.65-1.89-9.4-5.18-9.34-5.61.09-.63 6.39-9.12 6-21.37s-7.47-28.64-4.53-31.37c3-2.59 14.75-7.87 14.75-7.87 8-2 15.69 1 15.69 1 18.03 25.87 4.4 25.99 4.75 38.06Z"/><path fill="#3e9a83" d="M76 192.36s-10.6 1.88-13 9.64c-2.14 6.84-4.93 10.32 1.65 14.38-6.65-1.89-9.4-5.18-9.34-5.61.09-.63 6.39-9.12 6-21.37s-7.44-28.67-4.5-31.4l7.37.23s5.36 3.31 3.44 14.75-5.1 14.48 1.88 15.15 6.5 4.23 6.5 4.23Z" opacity=".78"/><path fill="#343a28" d="M61.6 140.82s-.63 9.92-9.66 8.45c-.35-.06-.69-.13-1-.22-8.08-2.17-8.85-13.32-3.31-17.48a7.33 7.33 0 0 1 7.94-.72 12.52 12.52 0 0 1 3.43 2.46c7 3.09 2.6 7.51 2.6 7.51Z"/><path fill="#24281b" d="M61.6 140.82s-.63 9.92-9.66 8.45c-.35-.06-.69-.13-1-.22 10.81-1.45 6.18-14.49 4.63-18.2a12.52 12.52 0 0 1 3.43 2.46c7 3.09 2.6 7.51 2.6 7.51Z"/><path fill="#343a28" d="M85.78 132.86s4.07-6 1.74-14.89-9.66-8.54-12.38-5.28c0 0-4-6.71-12.79-.85s-9.61 17.88-1.88 23.78c0 0-2.55 10 10.55 6.62s14.76-9.38 14.76-9.38Z"/><path fill="#ffb2a8" d="M78.64 157c-3.08.73-7.63-5.29-8.4-6.41a34.53 34.53 0 0 0-1.93-11.79s9.13-3.69 10.67 2.64a8.26 8.26 0 0 1 .22 1.83 32.23 32.23 0 0 0 .67 6.17c.06.28.12.56.19.82-.06 1.99 2.37 5.81-1.42 6.74Z"/><path fill="#f27c85" d="M79.86 149.4c-8.07.48-8.67-8.45-8.67-8.45l5.4-1.48s1.08.79 2.39 1.92a8.26 8.26 0 0 1 .22 1.83 32.23 32.23 0 0 0 .66 6.18Z"/><path fill="#ffb2a8" d="M83.82 122.81s8.45 21.37-5.77 21.9-14.31-20.52-14.31-20.52 12.75-14.75 20.08-1.38Z"/><path fill="#343a28" d="M67.05 132.42s6.3-2.37 11.53-12.2c0 0 1.7 7.11 7.42 7.82 0 0 .63-14.22-11.31-12.25s-13 10.55-10.46 16.5 2.82.13 2.82.13Z"/><path fill="#ffb2a8" d="M68.26 132.46s-4.38-4-5.77-.58 4.78 7.24 6.21 5.23-.44-4.65-.44-4.65Z"/><path fill="#f27c85" d="M66.29 132.91s-1.19-1.13-1.92-.22c-1.12 1.39.87 3.38 1.74 2.91.49-.27-.18-.76-.09-1.52s.81-.28.27-1.17Z"/><path fill="#343a28" d="M81.67 130.45s-.18-.31.45-.76 3 0 3.22.85c.07.35-1.92-.49-2.68 0s-.99-.09-.99-.09Z"/><ellipse cx="83.33" cy="132.69" fill="#343a28" rx=".99" ry="1.21"/><ellipse cx="82.97" cy="132.44" fill="#fff" rx=".28" ry=".39"/><path fill="#343a28" d="M77.31 130.76s.18-.31-.45-.76-3 0-3.22.85c-.07.35 1.92-.49 2.68 0s.99-.09.99-.09Z"/><ellipse cx="75.66" cy="133" fill="#343a28" rx=".99" ry="1.21"/><ellipse cx="76.01" cy="132.75" fill="#fff" rx=".28" ry=".39"/><path fill="#f27c85" d="M80.27 138.67a3.21 3.21 0 0 1-.6-.06.2.2 0 1 1 .08-.4 1.65 1.65 0 0 0 1.31-.17 1 1 0 0 0 .36-.59 10.1 10.1 0 0 1-2.08-4.18.2.2 0 1 1 .39-.09 9.91 9.91 0 0 0 2 4.06.22.22 0 0 1 .06.15 1.39 1.39 0 0 1-.53 1 1.67 1.67 0 0 1-.99.28ZM78.48 141.12a2.58 2.58 0 0 1-1.31-.33 2.48 2.48 0 0 1-1.1-1.45.2.2 0 1 1 .39-.09 2.07 2.07 0 0 0 .92 1.19 2.79 2.79 0 0 0 2.23.09.2.2 0 1 1 .11.39 4.15 4.15 0 0 1-1.24.2Z"/><path fill="#fff" d="m96.1 174.6-6.16 30.68a2.39 2.39 0 0 1-2.47 1.92l-16.23-.81-4.11-.2a2.39 2.39 0 0 1-2.23-2.86l3.88-19.84 2.16-11a2.39 2.39 0 0 1 2.49-1.93l4 .23 15.75.92h.72a2.4 2.4 0 0 1 2.2 2.89Z"/><path fill="#cedbee" d="m93.18 171.69-.15 1.9a1.94 1.94 0 0 1-1.94 1.88l-12-.64a2 2 0 0 1-1.76-2.18l.1-1.87Z" opacity=".75"/><path fill="#273657" d="m79.67 170.11-.11 1.81a1.34 1.34 0 0 0 1.27 1.41l8.63.41a1.33 1.33 0 0 0 1.39-1.22l.17-1.88a1.34 1.34 0 0 0-1.28-1.45l-8.69-.34a1.29 1.29 0 0 0-.84.26 1.39 1.39 0 0 0-.54 1Z"/><path fill="#cedbee" d="M84.53 193.44s-11.44 3.31-13.28 9.75a5.19 5.19 0 0 0 0 3.2l-4.11-.2a2.39 2.39 0 0 1-2.23-2.86l3.88-19.84c.69 1.7 2.93 4.35 10.14 5.1Z" opacity=".75"/><path fill="#ffb2a8" d="M79.08 189v4.92s-24.72 9.75-30.67 3.35l-.12-.13c-4.13-4.67-1.22-14 .73-18.77.38-.93.71-1.69 1-2.22s.4-.83.4-.83L54 177l6.83 3.21-2.68 8.85 15.1-.06h5.83Z"/><path fill="#ffb2a8" d="M86 190.89s5.23 0 4.92.85-5.32.89-5.32.89 4.29.63 3.62 1.43c-.32.39-2.83.34-5.34.18-2-.12-3.9-.31-4.81-.4l-.54-.05v-.62l.11-4.07.11-.1c.67-.56 4.08-3.38 5.21-3.18s-1.25 2.68-1.25 2.68 7-2.46 7.2-1.61-4.52 2.32-4.52 2.32 6.3-.89 6.44 0c.17 1.29-5.83 1.68-5.83 1.68Z"/><path fill="#f27c85" d="M73.25 189c-2.44.08-6 .24-10 .6-7.31.65-9 2.64-9.11 2.76.19-.27 5.86-8.24 1.25-9.65a12.94 12.94 0 0 1-6.39-4.33c.38-.93.71-1.69 1-2.22l4 .88 6.83 3.21-2.68 8.85ZM83.89 194.25l-4.81-.32s-24.72 9.75-30.67 3.35l-.12-.13a13.43 13.43 0 0 0 5.52 1.16c9 .27 21.37-3.92 24.74-5.13l.52-.19.36-.13a28.65 28.65 0 0 0 4.46 1.39ZM85.34 189.39a.16.16 0 0 1-.16-.14.16.16 0 0 1 .14-.17l4.68-.35a.16.16 0 0 1 0 .31l-4.68.35ZM89.89 191.31l-4.4-.33a.16.16 0 0 1 0-.31l4.4.33a.15.15 0 0 1 .14.17.16.16 0 0 1-.14.14ZM88.32 193.4l-3-.64a.16.16 0 0 1 .07-.31l3 .63a.16.16 0 0 1 .12.19.17.17 0 0 1-.19.13Z"/><path fill="#f27c85" d="M85.14 192.9a.16.16 0 0 1-.09-.2A5.15 5.15 0 0 0 85 189a.16.16 0 1 1 .28-.14 5.45 5.45 0 0 1 .05 3.92.17.17 0 0 1-.19.12Z"/><path fill="#6cc58d" d="M66.52 169.7a28.18 28.18 0 0 1-4.38 12.39c-.11.17-.18.26-.18.26a24.34 24.34 0 0 1-14.84-6.88c.34-1 .71-2 1.09-3A52.31 52.31 0 0 1 56.86 158c7.78-6.58 10.24 4.59 9.66 11.7Z"/><path fill="#3e9a83" d="M62.14 182.09c-.11.17-.18.26-.18.26a24.34 24.34 0 0 1-14.84-6.88c.34-1 .71-2 1.09-3 .19 1.65 1.33 3.93 5.52 5.78 5.82 2.55 7.81 3.53 8.41 3.84Z" opacity=".78"/></g><g><path fill="#dfe9f4" d="M180 247.66h-54.7a4.73 4.73 0 0 1-4.73-4.74h64.15a4.75 4.75 0 0 1-4.72 4.74ZM270.36 238.81H42.51a9.42 9.42 0 0 1-9.43-9.43h237.29v9.43Z"/><path fill="#92b1dd" d="M272.42 229.6a1.62 1.62 0 0 1-1.62 1.61H32.29a1.62 1.62 0 0 1-1.62-1.61 1.69 1.69 0 0 1 .13-.63 1.5 1.5 0 0 1 .35-.51 1.62 1.62 0 0 1 1.15-.46h238.52a1.61 1.61 0 0 1 1.6 1.6ZM112.38 239.08h-64a1.12 1.12 0 0 1-1.09-1.08 1.12 1.12 0 0 1 1.12-1.12h64a1.07 1.07 0 0 1 .72.27 1.11 1.11 0 0 1 .39.85 1.1 1.1 0 0 1-1.14 1.08ZM234.24 237.69h-63.52a1.34 1.34 0 0 1-1.34-1.34 1.35 1.35 0 0 1 1.34-1.34h63.52a1.34 1.34 0 0 1 1.34 1.34 1.33 1.33 0 0 1-1.34 1.34ZM184.6 244.27h-63.84a1.18 1.18 0 0 1-1.18-1.18 1.18 1.18 0 0 1 1.18-1.18h63.84a1.17 1.17 0 0 1 .84.35 1.19 1.19 0 0 1 .35.84 1.18 1.18 0 0 1-1.19 1.17Z"/><path fill="#cedbee" d="M101.7 245H83.86a1.34 1.34 0 0 1-1.34-1.34 1.34 1.34 0 0 1 1.34-1.34h17.84a1.34 1.34 0 0 1 1.34 1.34 1.34 1.34 0 0 1-1.34 1.34ZM219.85 245H202a1.34 1.34 0 0 1-1.34-1.34 1.34 1.34 0 0 1 1.34-1.36h17.84a1.34 1.34 0 0 1 1.34 1.34 1.34 1.34 0 0 1-1.33 1.36ZM262.36 239.48h-17.83a1.34 1.34 0 0 1-1.34-1.34 1.34 1.34 0 0 1 1.34-1.34h17.84a1.34 1.34 0 0 1 1.34 1.34 1.36 1.36 0 0 1-1.35 1.34Z"/></g></svg>