<svg xmlns="http://www.w3.org/2000/svg" data-name="Layer 1" viewBox="7.318 36.997 285.405 225.555"><path fill="#167ffc" d="M250 59.43V218.7a11.48 11.48 0 0 1-11.22 11.73h-98.24a11.49 11.49 0 0 1-11.22-11.73V59.43a12 12 0 0 1 3.29-8.29 11 11 0 0 1 7.93-3.44h98.25A11.48 11.48 0 0 1 250 59.43Z" class="color92b1dd svgShape"/><path fill="#ceceee" d="M245.17 59.43V218.7A11.48 11.48 0 0 1 234 230.43h-98.3a11.49 11.49 0 0 1-11.22-11.73V59.43a12 12 0 0 1 3.29-8.29 11 11 0 0 1 7.93-3.44H234a11.48 11.48 0 0 1 11.17 11.73Z" class="colorcedbee svgShape"/><path fill="#167ffc" d="M237.85 63.08v149.15a7 7 0 0 1-6.8 7.11h-92.44a7 7 0 0 1-6.8-7.11V63.08a7.23 7.23 0 0 1 2-5 6.63 6.63 0 0 1 4.8-2.08h92.44a7 7 0 0 1 6.8 7.08Z" class="color92b1dd svgShape"/><path fill="#fff" d="M237.85 63.08v149.15a7 7 0 0 1-6.8 7.11H143a7 7 0 0 1-6.8-7.11V63.08a7.23 7.23 0 0 1 2-5A6.63 6.63 0 0 1 143 56h88.05a7 7 0 0 1 6.8 7.08Z" class="colorffffff svgShape"/><path fill="#167ffc" d="M213.45 56v1.27a6.1 6.1 0 0 1-6 6.23h-43.22a5.82 5.82 0 0 1-4.23-1.86 6.37 6.37 0 0 1-1.75-4.41V56h55.19Z" class="color92b1dd svgShape"/><path fill="#ceceee" d="M209.06 48.1v9.14a6.1 6.1 0 0 1-6 6.23h-38.83a5.82 5.82 0 0 1-4.23-1.83 6.37 6.37 0 0 1-1.75-4.41V47.7H209a2.61 2.61 0 0 1 .06.4Z" class="colorcedbee svgShape"/><path fill="#167ffc" d="M124.22 191.25a.45.45 0 0 1-.45-.45V65.2a.45.45 0 1 1 .9 0v125.6a.45.45 0 0 1-.45.45ZM227.41 219.72h-73.78a.45.45 0 1 1 0-.9h73.78a.45.45 0 1 1 0 .9ZM237.81 186.76a.45.45 0 0 1-.45-.45V63.45a.45.45 0 0 1 .9 0v122.86a.45.45 0 0 1-.45.45ZM237.59 207.08a.45.45 0 0 1-.45-.45v-14.35a.45.45 0 0 1 .9 0v14.35a.45.45 0 0 1-.45.45ZM191 63.9h-26.79a5.87 5.87 0 0 1-4.5-1.78c-2.15-2.32-1.9-6-1.89-6.18a.45.45 0 0 1 .9.06s-.23 3.48 1.65 5.51a5 5 0 0 0 3.84 1.49H191a.45.45 0 0 1 0 .9ZM213.26 48.15h-72.71a.45.45 0 1 1 0-.9h72.71a.45.45 0 0 1 0 .9Z" class="color92b1dd svgShape"/><path fill="#fcc489" d="M203.19 175.71h-22.86a1.12 1.12 0 0 1-1.12-1.12 1.12 1.12 0 0 1 1.12-1.12h22.86a1.12 1.12 0 0 1 1.12 1.12 1.12 1.12 0 0 1-1.12 1.12Z" class="colorfccd89 svgShape"/><path fill="#f2b370" d="M180.73 186.16h-33.89a1.34 1.34 0 0 1-1.34-1.34v-.67a1.34 1.34 0 0 1 1.34-1.34h33.89a1.34 1.34 0 0 1 1.34 1.34v.67a1.34 1.34 0 0 1-1.34 1.34ZM208.39 186.16h-19.77a1.34 1.34 0 0 1-1.34-1.34v-.67a1.34 1.34 0 0 1 1.34-1.34h19.77a1.34 1.34 0 0 1 1.34 1.34v.67a1.34 1.34 0 0 1-1.34 1.34ZM163.47 194h-16.63a1.34 1.34 0 0 1-1.34-1.34V192a1.34 1.34 0 0 1 1.34-1.34h16.63a1.34 1.34 0 0 1 1.34 1.34v.67a1.34 1.34 0 0 1-1.34 1.33ZM208.39 194h-38.24a1.34 1.34 0 0 1-1.34-1.34V192a1.34 1.34 0 0 1 1.34-1.34h38.24a1.34 1.34 0 0 1 1.34 1.34v.67a1.34 1.34 0 0 1-1.34 1.33Z" class="colorf28c70 svgShape"/><path fill="#fcc489" d="M181.3 214h-33.2a2.43 2.43 0 0 1-2.43-2.43v-10.33a2.4 2.4 0 0 1 1.12-2 2.46 2.46 0 0 1 1.32-.39h33.2a2.43 2.43 0 0 1 2.43 2.43v10.29a2.45 2.45 0 0 1-2.44 2.43Z" class="colorfccd89 svgShape"/><path fill="#fff" d="m157.39 209.39-1.14-1.64H155v1.64h-1.37v-5.9h2.55a3.33 3.33 0 0 1 1.36.26 1.94 1.94 0 0 1 1.2 1.88 1.93 1.93 0 0 1-1.22 1.86l1.32 1.9Zm-.35-4.53a1.42 1.42 0 0 0-.94-.27H155v2.06h1.11a1.44 1.44 0 0 0 .94-.27 1 1 0 0 0 .32-.76.92.92 0 0 0-.37-.76ZM164.4 208.29v1.1h-4.57v-5.9h4.46v1.1h-3.1v1.28h2.74v1.06h-2.74v1.37h3.21ZM170.9 203.48v5.9h-1.12l-2.94-3.58v3.58h-1.35v-5.9h1.13l2.93 3.58v-3.58ZM173.52 204.6h-1.89v-1.11h5.14v1.11h-1.89v4.79h-1.37v-4.79Z" class="colorffffff svgShape"/><path fill="#fe9526" d="m191.62 203.02.9 2.75h2.9l-2.35 1.71.9 2.75-2.35-1.7-2.34 1.7.89-2.75-2.34-1.71h2.9l.89-2.75zM200.27 203.02l.9 2.75h2.9l-2.35 1.71.9 2.75-2.35-1.7-2.34 1.7.89-2.75-2.34-1.71h2.9l.89-2.75zM208.84 203.02l.89 2.75h2.9l-2.35 1.71.9 2.75-2.34-1.7-2.35 1.7.9-2.75-2.35-1.71h2.9l.9-2.75zM217.49 203.02l.89 2.75h2.9l-2.34 1.71.89 2.75-2.34-1.7-2.35 1.7.9-2.75-2.35-1.71h2.9l.9-2.75zM225.83 203.02l.89 2.75h2.9l-2.34 1.71.89 2.75-2.34-1.7-2.35 1.7.9-2.75-2.35-1.71h2.9l.9-2.75z" class="colord66c54 svgShape"/><path fill="#dff4e3" d="M143.99 110.29h82.17v58.95h-82.17z" class="colordfe9f4 svgShape"/><path fill="#167ffc" d="M144.17 159.11s-1.93-.72-1.26-2.47 2.2-.49 2.2-.49-1-1.39.09-1.93 1.93 1.12 1.93 1.12a2 2 0 0 1 1.57-2.34c1.93-.4 2 2 2 2a3.06 3.06 0 0 1 3.68-2.82c3.41.49 2.87 6.23 2.87 6.23a3 3 0 0 1 2.64-2.24c2.24-.27 2.87 2.15 2.87 2.15a2.09 2.09 0 0 1 2.56-1.61c2.06.49 1.26 3.9 1.26 3.9s-21.96.92-22.41-1.5Z" class="color92b1dd svgShape"/><path fill="#f5f7f5" d="M165.51 158.21s-1.17-2.69.67-4.62 3.72.09 3.72.09-.49-3.68 2.51-3.68 2.82 3.68 2.82 3.68a4.3 4.3 0 0 1 4.44-.13c2.33 1.34.72 5.56.72 5.56s-13.85 2.37-14.88-.9Z" class="colorf5f5f7 svgShape"/><path fill="#167ffc" d="M179.36 158.88a7 7 0 0 1 4.62-4c3.45-.85 3.14 1.79 3.14 1.79a5.72 5.72 0 0 1 5.78-2.51c3.94.63 3.41 5.11 3.41 5.11s-15.02 2.62-16.95-.39Z" class="color92b1dd svgShape"/><path fill="#aeafd3" d="M143.99 158.79h54.65v10.45h-54.65z" class="coloraec6d3 svgShape"/><path fill="#ceceee" d="M143.99 161.75h54.65v.63h-54.65zM143.99 165.7h54.65v.63h-54.65zM214.59 90.12v31.38H136.9l18.12-31.38h59.57z" class="colorcedbee svgShape"/><path fill="#ceceee" d="M231.14 117.51v51.73H198v-51.9l4.07-7 11.33-19.63h2.27Z" class="colorcedbee svgShape"/><path fill="#fff" d="M183.3 132.29h6.63v12.64h-6.63zM167.21 132.29h6.63v12.64h-6.63zM151.74 132.29h6.63v12.64h-6.63zM211.64 118.4h6.46v12.78h-6.46zM201.82 136.87h4.08v7.98h-4.08zM222.89 136.91h3.99v7.93h-3.99z" class="colorffffff svgShape"/><path fill="#aeafd3" d="M205.16 145.37h-2.5a1.3 1.3 0 0 1-1.3-1.3v-6.37a1.3 1.3 0 0 1 1.3-1.3h2.5a1.3 1.3 0 0 1 1.3 1.3v6.36a1.31 1.31 0 0 1-1.3 1.31Zm-2.51-8.3a.64.64 0 0 0-.45.19.63.63 0 0 0-.18.45v6.36a.63.63 0 0 0 .63.63h2.5a.63.63 0 0 0 .63-.63v-6.37a.63.63 0 0 0-.63-.63Z" class="coloraec6d3 svgShape"/><path fill="#aeafd3" d="M203.53 136.79h.67v8.2h-.67z" class="coloraec6d3 svgShape"/><path fill="#aeafd3" d="M201.65 140.58h4.44v.67h-4.44zM226.14 145.37h-2.5a1.3 1.3 0 0 1-1.3-1.3v-6.37a1.3 1.3 0 0 1 1.3-1.3h2.5a1.3 1.3 0 0 1 1.3 1.3v6.36a1.31 1.31 0 0 1-1.3 1.31Zm-2.51-8.3a.64.64 0 0 0-.45.19.63.63 0 0 0-.18.45v6.36a.63.63 0 0 0 .63.63h2.5a.63.63 0 0 0 .63-.63v-6.37a.63.63 0 0 0-.63-.63Z" class="coloraec6d3 svgShape"/><path fill="#aeafd3" d="M224.51 136.79h.67v8.2h-.67z" class="coloraec6d3 svgShape"/><path fill="#aeafd3" d="M222.63 140.58h4.44v.67h-4.44zM216.88 131.69h-4a1.87 1.87 0 0 1-1.87-1.87v-10.07a1.86 1.86 0 0 1 1.86-1.87h4a1.87 1.87 0 0 1 1.87 1.87v10.07a1.85 1.85 0 0 1-1.86 1.87Zm-4-13.13a1.23 1.23 0 0 0-.85.35 1.21 1.21 0 0 0-.35.84v10.07a1.2 1.2 0 0 0 1.2 1.2h4a1.2 1.2 0 0 0 1.2-1.2v-10.07a1.2 1.2 0 0 0-1.2-1.2h-4Z" class="coloraec6d3 svgShape"/><path fill="#aeafd3" d="M214.5 118.3h.67v12.98h-.67z" class="coloraec6d3 svgShape"/><path fill="#aeafd3" d="M211.32 124.5h7.03v.67h-7.03zM188.59 145.55h-4a1.87 1.87 0 0 1-1.87-1.87v-10.07a1.86 1.86 0 0 1 1.86-1.87h4a1.87 1.87 0 0 1 1.87 1.87v10.07a1.86 1.86 0 0 1-1.86 1.87Zm-4-13.14a1.23 1.23 0 0 0-.85.35 1.21 1.21 0 0 0-.35.84v10.07a1.2 1.2 0 0 0 1.2 1.2h4a1.2 1.2 0 0 0 1.2-1.2V133.6a1.2 1.2 0 0 0-1.2-1.2h-4Z" class="coloraec6d3 svgShape"/><path fill="#aeafd3" d="M186.21 132.16h.67v12.98h-.67z" class="coloraec6d3 svgShape"/><path fill="#aeafd3" d="M183.04 138.36h7.03v.67h-7.03zM172.55 145.55h-4a1.87 1.87 0 0 1-1.87-1.87v-10.07a1.86 1.86 0 0 1 1.86-1.87h4a1.87 1.87 0 0 1 1.87 1.87v10.07a1.87 1.87 0 0 1-1.86 1.87Zm-4-13.14a1.23 1.23 0 0 0-.85.35 1.21 1.21 0 0 0-.35.84v10.07a1.2 1.2 0 0 0 1.2 1.2h4a1.2 1.2 0 0 0 1.2-1.2V133.6a1.2 1.2 0 0 0-1.2-1.2h-4Z" class="coloraec6d3 svgShape"/><path fill="#aeafd3" d="M170.17 132.16h.67v12.98h-.67z" class="coloraec6d3 svgShape"/><path fill="#aeafd3" d="M166.99 138.36h7.03v.67h-7.03zM157.08 145.55h-4a1.87 1.87 0 0 1-1.87-1.87v-10.07a1.86 1.86 0 0 1 1.86-1.87h4a1.87 1.87 0 0 1 1.87 1.87v10.07a1.86 1.86 0 0 1-1.86 1.87Zm-4-13.14a1.23 1.23 0 0 0-.85.35 1.21 1.21 0 0 0-.35.84v10.07a1.2 1.2 0 0 0 1.2 1.2h4a1.2 1.2 0 0 0 1.2-1.2V133.6a1.2 1.2 0 0 0-1.2-1.2h-4Z" class="coloraec6d3 svgShape"/><path fill="#aeafd3" d="M154.7 132.16h.67v12.98h-.67z" class="coloraec6d3 svgShape"/><path fill="#aeafd3" d="M151.52 138.36h7.03v.67h-7.03zM215.58 91.93l-1.07 1.86L198 122.44l-.9 1.56a1.28 1.28 0 0 1-1.74.47 1.28 1.28 0 0 1-.47-1.74l3.11-5.38 15.4-26.68a1.25 1.25 0 0 1 1.12-.62 1.26 1.26 0 0 1 .59.17 1.32 1.32 0 0 1 .46.45 1.21 1.21 0 0 1 .01 1.26Z" class="coloraec6d3 svgShape"/><path fill="#aeafd3" d="M233.68 124.46a1.26 1.26 0 0 1-1.74-.46l-.8-1.39L214.5 93.8l-1.07-1.86a1.27 1.27 0 0 1 0-1.29 1.24 1.24 0 0 1 .46-.45 1.29 1.29 0 0 1 .59-.17 1.28 1.28 0 0 1 1.12.62l15.5 26.85 3 5.21a1.29 1.29 0 0 1-.42 1.75ZM218.18 150.25v15.83a4.87 4.87 0 0 1-1.11 3.16h-5.45a4.93 4.93 0 0 1-1.11-3.16v-15.83a4.84 4.84 0 0 1 1.25-3.32 3.44 3.44 0 0 1 5.29.15 4.8 4.8 0 0 1 1.13 3.17Z" class="coloraec6d3 svgShape"/><path fill="#167ffc" d="M185.46 84.42v17.08l-7.18 10.31h-7.08V84.42h14.26z" class="color92b1dd svgShape"/><path fill="#dff4e3" d="M167.17 84.42h11.12v27.39h-11.12z" class="colordfe9f4 svgShape"/><path fill="#aeafd3" d="M165.37 82.18h22.46v4.12h-22.46z" class="coloraec6d3 svgShape"/><path fill="#ceceee" d="M165.37 82.18h14.7v4.12h-14.7z" class="colorcedbee svgShape"/><path fill="#dff4e3" d="M197.96 162.47h33.17v6.77h-33.17z" class="colordfe9f4 svgShape"/><path fill="#aeafd3" d="M197.96 164.62h33.17v.63h-33.17zM197.96 167.04h33.17v.63h-33.17zM193.07 122h-56.21a.45.45 0 1 1 0-.9h56.21a.45.45 0 0 1 0 .9ZM167.21 112.3a.45.45 0 0 1-.45-.45V86.3a.45.45 0 1 1 .9 0v25.55a.45.45 0 0 1-.45.45ZM198 152.83a.45.45 0 0 1-.45-.45v-25.92a.45.45 0 1 1 .9 0v25.92a.45.45 0 0 1-.45.45Z" class="coloraec6d3 svgShape"/><path fill="#167ffc" d="M218.18 161.07a.29.29 0 0 1-.3-.3v-8.66c0-5.85-3.44-6.05-3.58-6.06a.3.3 0 0 1 0-.6s4.16.2 4.16 6.66v8.66a.3.3 0 0 1-.28.3ZM210.51 159.1a.29.29 0 0 1-.3-.3v-7.74a.29.29 0 0 1 .3-.3.3.3 0 0 1 .3.3v7.74a.3.3 0 0 1-.3.3Z" class="color92b1dd svgShape"/><path fill="#aeafd3" d="M231.14 159.24a.45.45 0 0 1-.45-.45v-31.73a.45.45 0 1 1 .9 0v31.73a.45.45 0 0 1-.45.45Z" class="coloraec6d3 svgShape"/><path fill="#167ffc" d="M198.51 121.8a.26.26 0 0 1-.15 0 .3.3 0 0 1-.11-.41l16.26-27.79 8.06 13.62a.3.3 0 0 1-.52.3l-7.54-12.74-15.74 26.91a.3.3 0 0 1-.26.11Z" class="color92b1dd svgShape"/><path fill="#aeafd3" d="M175.75 86.75h-5.58a.45.45 0 1 1 0-.9h5.58a.45.45 0 1 1 0 .9ZM142.47 112.3a.46.46 0 0 1-.23-.06.45.45 0 0 1-.16-.62l12.54-21.7a.45.45 0 0 1 .78.46l-12.54 21.7a.47.47 0 0 1-.39.22ZM207.77 90.6h-22.31a.45.45 0 0 1 0-.9h22.31a.45.45 0 1 1 0 .9ZM198 148.07h-54a.45.45 0 0 1 0-.9h54a.45.45 0 0 1 0 .9Z" class="coloraec6d3 svgShape"/><g class="color000000 svgShape"><path fill="#ffd5a8" d="M121 147.09s2.91-5.6 3.94-5.07.27 2.78.27 2.78 4.89-4.75 5.74-4.44-2.38 4.35-2.38 4.35 4.4-4.3 5.52-3.67-4.3 5.38-4.3 5.38 4.93-3.18 5.33-1.93-5.78 4.84-5.78 4.84 3.59-1.79 3.68-.36-9.73 3.41-9.73 3.41Z" class="colorffb2a8 svgShape"/><path fill="#2c2ea0" d="M102.77 232.26H83.8l-.25-1.84-1.48-10.92-1.14-8.4-.31-2.2-1.27-9.4 2.39-.17 19.66-1.4.28 7.05.09 2.06.93 23.38.07 1.84z" class="color2c4fa0 svgShape"/><path fill="#272857" d="m101.68 205-7 4A13.45 13.45 0 0 0 88 221.73l.71 8.69.15 1.84h-5l-.25-1.84-1.54-10.92-1.14-8.4-.3-2.21-1.28-9.4 2.39-.17 19.66-1.4Z" class="color273657 svgShape" opacity=".58"/><path fill="#2c2ea0" d="m86.52 201.65-.11.45-1.73 6.9-.45 1.79-2.16 8.68-2.72 10.92-.46 1.84H53.7l.5-1.84L60.79 206l2.33-8.66c1.39-1.44 3.63-1.84 6.18-1.65a34.59 34.59 0 0 1 9.21 2.31c1.15.44 2.24.89 3.23 1.33 1.88.83 3.38 1.59 4.17 2Z" class="color2c4fa0 svgShape"/><path fill="#272857" d="m86.41 202.1-1.73 6.9-.45 1.79-3.31.28-4.64.39a14.73 14.73 0 0 0-13 10.79l-2.23 8.14-.5 1.84h-6.86l.5-1.84L60.78 206l2.33-8.66c1.39-1.44 3.63-1.84 6.18-1.65A34.59 34.59 0 0 1 78.5 198c1.15.44 2.24.89 3.23 1.33 1.88.83 3.38 1.59 4.17 2 .19.27.35.53.51.77Z" class="color273657 svgShape" opacity=".58"/><path fill="#53d86a" d="M124.22 152.38a83.7 83.7 0 0 1-10.58 11.93c-4.72 4.21-9.93 7.11-13.14 3.53-2.79-3.11-4-8.72-4.45-14.36a97.42 97.42 0 0 1 .41-17.29s2.66 1.32 7.43 11c1 2 2.1 4.45 3.29 7.3l11.37-6.55 2.45-1.44Z" class="color6cc58d svgShape"/><path fill="#3e9a4e" d="m106.73 166.08 13.81-17.79-2-.35-11.37 6.55c-1.19-2.85-2.28-5.26-3.29-7.3.47 1.77 1.06 4.49.77 6a6.13 6.13 0 0 1-2.5 3.43 89.33 89.33 0 0 0-4.54-16.25l-.81 7s-.36 2.77-.77 6.09c.45 5.64 1.66 11.26 4.45 14.36 3.21 3.58 8.42.68 13.14-3.53-1.95 1.05-4.62 2.28-6.89 1.79Zm-2.82-2.22a9.32 9.32 0 0 1-.88-2.52Z" class="color3e9a83 svgShape" opacity=".78"/><path fill="#53d86a" d="M102.52 199.14c-16 10.71-40-1.66-40-1.66s.81-2.72 1.89-7.16c.36-1.48.75-3.14 1.16-5 .33-1.48.66-3.07 1-4.74.56-2.79 1.11-5.81 1.6-9 2.24-14.35-4-30.54-4-30.54 5.07-2.91 8.32-4.91 10.11-6.05l1.09-.7.68-.45s2.51-.4 10 0 10.36 2.33 10.36 2.33c4.75 13 6 32.31 6.24 46.13.23 9.83-.13 16.84-.13 16.84Z" class="color6cc58d svgShape"/><path fill="#3e9a4e" d="m90.73 142.33-.65 2.77v11s-3.54 11.34-3.36 8.72-1-20.28-1-20.28-1 3.23-3.68 2.38c-2.31-.73-6.58-9.41-7.73-11.84l1.09-.7 6.68 4.56s8.11-4.12 10-.11-1.35 3.5-1.35 3.5Z" class="color3e9a83 svgShape" opacity=".78"/><path fill="#283a2b" d="M68.5 104.77s-4.21-1.08-6.41 3.59 1.48 7.13 1.48 7.13-2.69 1.34-1.26 4.75 5.16 2 5.16 2a2.92 2.92 0 0 0 1.7 3.68c2.64 1.39 4.89-.14 4.58-2.27s.27-15.17.27-15.17Z" class="color343a28 svgShape"/><path fill="#ffd5a8" d="M88.65 140.71a27.22 27.22 0 0 1-2.49-1.42 9.52 9.52 0 0 1-1 3.91l-4.38-.1s-.37-.21-.93-.58a44.31 44.31 0 0 1-4.56-7c0-.11.06-.23.1-.34a10 10 0 0 0 .45-2.85 42.39 42.39 0 0 0-1.43-10.11s9.09-3 10.16 3.39a7.7 7.7 0 0 1 .1 1.32 15.67 15.67 0 0 0 .72 5.19c.06.17.13.33.19.49 1.06 2.46 2.67 2.48 2.67 2.48Z" class="colorffb2a8 svgShape"/><path fill="#272857" d="M86.88 143.69s.49 24.07-1.12 34.43a128.17 128.17 0 0 0-1.7 14.75s4.8 4.3 5.38 4.39S93 191.7 93 191.7s1.57-33.22-3.59-49Z" class="color273657 svgShape"/><path fill="#f2b97c" d="M85.45 132.16c-6.41 2.3-8.34-7-8.34-7l1.3-1.12 3.18-.58a28.54 28.54 0 0 1 3 2.18 7.7 7.7 0 0 1 .1 1.32 15.45 15.45 0 0 0 .76 5.2Z" class="colorf27c85 svgShape"/><path fill="#ffd5a8" d="M88.58 108s5.65 18.1-2.2 20.26c-6.51 1.79-11.16-.17-13.4-9s2.51-11.57 2.51-11.57l9.5-2.11Z" class="colorffb2a8 svgShape"/><path fill="#ffd5a8" d="M74.64 120.37s-3-4-4.66-1.39 4.8 6.81 5.2 3.41-.54-2.02-.54-2.02Z" class="colorffb2a8 svgShape"/><path fill="#f2b97c" d="M73.2 120.55c-.72-.76-1.39-1.66-2.15-.81s2.2 3.53 2.6 2.33c.23-.67-.45-1.52-.45-1.52Z" class="colorf27c85 svgShape"/><path fill="#283a2b" d="m72.62 118.22 1.3 2.32a.89.89 0 0 0 .54.41.86.86 0 0 0 .5 0 .85.85 0 0 0 .51-1l-1.28-4.78s7.49-1 8.2-6.72c0 0 7.44 5.33 12.64-1.7s-.4-13.49-6.1-14.61S79.11 96 79.11 96s-2.38-2.78-7.35.09-4.08 8.83-4.08 8.83Z" class="color343a28 svgShape"/><path fill="#283a2b" d="M81.68 116.2a4.1 4.1 0 0 0-2.64 1c-.63.67-1.3-.85.81-1.79s2.77.7 1.83.79Z" class="color343a28 svgShape"/><circle cx="81.27" cy="118.13" r=".81" fill="#283a2b" class="color343a28 svgShape"/><path fill="#283a2b" d="M87.24 115.06a4.13 4.13 0 0 1 2.82-.29c.86.31.77-1.35-1.54-1.23s-2.16 1.87-1.28 1.52Z" class="color343a28 svgShape"/><circle cx="88.56" cy="116.44" r=".81" fill="#283a2b" class="color343a28 svgShape"/><path fill="#f2b97c" d="m86.94 122.72-.32-.84a1.64 1.64 0 0 0 1.1-1 6.91 6.91 0 0 1-2.6-3.79l.88-.19-.44.09.44-.1a6 6 0 0 0 2.45 3.39l.21.13v.25a2.33 2.33 0 0 1-1.72 2.06ZM85.46 125.48a2.59 2.59 0 0 1-.92-.17 3 3 0 0 1-1.54-1.54l.83-.34a2.08 2.08 0 0 0 1.07 1 2.24 2.24 0 0 0 1.77-.2l.39.81a3.85 3.85 0 0 1-1.6.44Z" class="colorf27c85 svgShape"/><path fill="#272857" d="M84.32 142.48s3.18 2.6 4.62 2.38 1-5.29 1-5.29-3.77-2.29-4.66-.72a8.79 8.79 0 0 0-.96 3.63Z" class="color273657 svgShape"/><path fill="#f5f7f5" d="M92.44 141.09c-.2 1.15-2.12.46-3.79-.37a27.22 27.22 0 0 1-2.49-1.42 9.52 9.52 0 0 1-1 3.91 2.61 2.61 0 0 1-2.13 1.47c-.93.06-2-.86-3.17-2.15a44.31 44.31 0 0 1-4.56-7l-.36-.68s-.7-1 .82-2.57l.09.07c.9.69 8.43 6.44 9.82 5.89s.27-4.39-.07-5.62c-.06-.23-.11-.37-.11-.37s2.42 0 3.45 1.63c.06.03 3.86 5.12 3.5 7.21Z" class="colorf5f5f7 svgShape"/><path fill="#3e9a4e" d="M66.3 144.89s5.78 4.35 5.69 25.91l17.71 10.13-12.91 2.42-15.33-17.84 3-18.2Z" class="color3e9a83 svgShape" opacity=".78"/><path fill="#3e9a4e" d="M88.31 186.76c-9.46 1.8-19.26-.44-22.77-1.4.33-1.48.66-3.07 1-4.74Z" class="color3e9a83 svgShape" opacity=".78"/><path fill="#3e9a4e" d="m90.24 181.12-.77-.39-.47-.24Z" class="color3e9a83 svgShape" opacity=".78"/><path fill="#3e9a4e" d="M102.52 199.14c-16 10.71-40-1.66-40-1.66s.81-2.72 1.89-7.16c.94 3.47 4.29 8.49 15.63 9.89 17.53 2.16 22.74-4.74 22.7-17.87.14 9.79-.22 16.8-.22 16.8Z" class="color3e9a83 svgShape" opacity=".78"/><circle cx="140.55" cy="121.12" r="26.5" fill="#f2b370" class="colorf28c70 svgShape"/><path fill="#f2b370" d="m134.85 132.94-27.42 29.85-5.65 6.14-.02.02-.08-.07-5.13-4.72 5.93-6.46 27.16-29.55 5.21 4.79z" class="colorf28c70 svgShape"/><path fill="#fcc489" d="m105.06 171.07-2.06 2.28-2.9 3.15-13.19 14.32-2.14 2.33a7.26 7.26 0 0 1-10.26.43 7.1 7.1 0 0 1-2.25-4.34 7.62 7.62 0 0 1 .12-2.69 7.15 7.15 0 0 1 1.69-3.23l8.16-8.89 10-10.92 2.09-2.28 2.68 2.43 5.22 4.79Z" class="colorfccd89 svgShape"/><path fill="#fe9526" d="M103.41 173.76 91.71 163a1.85 1.85 0 0 1-.11-2.61l.63-.68a1.85 1.85 0 0 1 2.61-.11l11.7 10.75a1.85 1.85 0 0 1 .11 2.61l-.63.68a1.85 1.85 0 0 1-2.61.12ZM155.88 135.21a20.8 20.8 0 0 1-18.17 6.55 20.47 20.47 0 0 1-3.16-.68 20.83 20.83 0 0 1 1.52-40.31 20.19 20.19 0 0 1 3.2-.44 20.83 20.83 0 0 1 16.61 34.88Z" class="colord66c54 svgShape"/><path fill="#fff1e3" d="M154 133.52a18.16 18.16 0 0 1-8.42 5.21 18.41 18.41 0 0 1-7.56.55 19.14 19.14 0 0 1-2.78-.6 18.06 18.06 0 0 1-4.42-2 18.33 18.33 0 0 1 1.2-31.8 18.07 18.07 0 0 1 4.56-1.65 19.18 19.18 0 0 1 2.81-.39A18.32 18.32 0 0 1 154 133.52Z" class="colorfff3e3 svgShape"/><path d="m107.43 162.79-5.65 6.15-.1-.05-5.13-4.72 5.93-6.46c-1 2-1.6 4.31-.28 5.33s3.56.5 5.23-.25Z" style="isolation:isolate" fill="#fe9526" class="colord66c54 svgShape" opacity=".57"/><path d="m100.07 176.5-13.16 14.32a48.69 48.69 0 0 1-14.53-4.26 7.15 7.15 0 0 1 1.69-3.23l8.16-8.89c1.28 1.37 4 3 9.48 2.91a44.08 44.08 0 0 0 8.36-.85Z" style="isolation:isolate" fill="#f2b370" class="colorf28c70 svgShape" opacity=".56"/><path fill="#ffd5a8" d="M88.27 186.14c.24.26 1.93 2 2.93 2.12s4.21.09 4.21-.72-1.79-.9-1.79-.9 1.93.22 2.33-.58-1.3-1.17-1.3-1.17 1.66.13 1.93-.81S95 183 95 183s1.75-.27 1.61-1.48-4.75-1.08-6.81 0-1.53 4.62-1.53 4.62Z" class="colorffb2a8 svgShape"/><path fill="none" d="m92.3 186.31 2.78.54M93.33 184.7l2.69.36"/><path fill="#53d86a" d="m90.24 181.12-1.91 5.6s-23.18-1.3-28-7.4S56.79 142 64.55 141a35.68 35.68 0 0 1 5.24 15.68l.19 2.17.19 7.07.17 6.07 13 6 5.66 2.56Z" class="color6cc58d svgShape"/><path fill="#3e9a4e" d="m70.34 172 13 6c-11.87-4.9-18-3.77-18-3.77a11.86 11.86 0 0 0 4.86-8.26Z" class="color3e9a83 svgShape" opacity=".78"/></g><g class="color000000 svgShape"><path fill="#f2b370" d="m262.32 123.89 1.87 5.76h6.06l-4.9 3.57 1.87 5.76-4.9-3.56-4.91 3.56 1.88-5.76-4.91-3.57h6.06l1.88-5.76z" class="colorf28c70 svgShape"/><path fill="#fcc489" d="M249.79 88.05c0 9.68-12.19 24.3-12.19 24.3s-12.19-13.67-12.19-24.3a12.19 12.19 0 1 1 24.38 0Z" class="colorfccd89 svgShape"/><path fill="#f2b370" d="m237.61 112.81-.24-.26c-.5-.56-12.26-13.88-12.26-24.5a12.49 12.49 0 0 1 25 0c0 9.68-11.76 23.89-12.26 24.49Zm0-36.65a11.9 11.9 0 0 0-11.89 11.89c0 9.59 10.2 21.88 11.88 23.83 1.65-2 11.9-15.09 11.9-23.83a11.9 11.9 0 0 0-11.9-11.89Z" class="colorf28c70 svgShape"/><circle cx="237.77" cy="86.75" r="5.02" fill="#f2b370" class="colorf28c70 svgShape"/><path fill="#dff4e3" d="m108.83 54.47 4.68 11.7v.1a2.09 2.09 0 0 1-1.2 2.61L91.79 77.1a2.09 2.09 0 0 1-2.59-.92l-.12-.24-4.68-11.7a2 2 0 0 1-.15-.82 2.09 2.09 0 0 1 1.31-1.89l20.56-8.22a2.07 2.07 0 0 1 2.33.55 1.91 1.91 0 0 1 .38.61Z" class="colordfe9f4 svgShape"/><path fill="#aeafd3" d="m108.46 53.86-9.17 13.21-15-3.65a2.09 2.09 0 0 1 1.31-1.89l20.56-8.22a2.09 2.09 0 0 1 2.3.55Z" class="coloraec6d3 svgShape"/><path fill="#aeafd3" d="m97.23 61.94-8.48 13.18.32.81a1.08 1.08 0 0 0 .12.24L97.68 63l15.87 3.27a.42.42 0 0 0 0-.1l-.38-.94Z" class="coloraec6d3 svgShape"/><circle cx="107.55" cy="52.39" r="3.27" fill="#f2b97c" class="colorf27c85 svgShape"/><path fill="#dff4e3" d="M55.13 94.34 45.87 98a1.81 1.81 0 0 1-2.35-1l-3.4-8.59a1.81 1.81 0 0 1 1-2.35l9.26-3.67a1.81 1.81 0 0 1 2.35 1L56.15 92a1.82 1.82 0 0 1-1.02 2.34Z" class="colordfe9f4 svgShape"/><path fill="#aeafd3" d="M45.21 98.44a2.13 2.13 0 0 1-2-1.34l-3.4-8.59a2.15 2.15 0 0 1 0-1.52A2.12 2.12 0 0 1 41 85.77l9.26-3.67a2 2 0 0 1 1.61 0A2.08 2.08 0 0 1 53 83.29l3.4 8.59a2.16 2.16 0 0 1 0 1.62 2.09 2.09 0 0 1-1.16 1.12L46 98.29a2.11 2.11 0 0 1-.79.15Zm5.85-15.89a1.54 1.54 0 0 0-.55.11l-9.26 3.67a1.53 1.53 0 0 0-.86.87 1.52 1.52 0 0 0 0 1.09l3.4 8.59a1.51 1.51 0 0 0 2 .85L55 94.06a1.48 1.48 0 0 0 .83-.8 1.55 1.55 0 0 0 0-1.16l-3.4-8.59a1.5 1.5 0 0 0-.81-.83 1.38 1.38 0 0 0-.56-.13Z" class="coloraec6d3 svgShape"/><path fill="#f2b370" d="M49.38 93.05a.91.91 0 0 1-.54 0L44 91.93a.89.89 0 1 1 .42-1.74l3.8.91A48.9 48.9 0 0 1 50.4 79a.9.9 0 0 1 1.69.61C50.23 84.71 50 92.18 50 92.26a.9.9 0 0 1-.35.68 1.51 1.51 0 0 1-.27.11Z" class="colorf28c70 svgShape"/><path fill="#dff4e3" d="M35.92 152.63a1.35 1.35 0 0 1-1.67-.91L28.74 133a1.35 1.35 0 0 1 .91-1.67l6.35-1.89a1.34 1.34 0 1 1 .76 2.58l-5 1.48 5.07 17.5a1.34 1.34 0 0 1-.91 1.63Z" class="colordfe9f4 svgShape"/><path fill="#dff4e3" d="m37 139.15-4.55 1.34a1.34 1.34 0 0 1-.76-2.58l4.55-1.34a1.34 1.34 0 0 1 .76 2.58Z" class="colordfe9f4 svgShape"/><path fill="#aeafd3" d="m45 159.67-4.67-10.26a2.28 2.28 0 0 0-2.72-1.25l-5.42 1.59a2.32 2.32 0 0 0-1.38 1.12 2.29 2.29 0 0 0-.24 1.42l1.74 11.12a2.29 2.29 0 0 0 2.9 1.84l8.35-2.45a2.28 2.28 0 0 0 1.44-3.13Zm-3.3-.46a1.56 1.56 0 0 1-1 1.93l-3.7 1.08a1.56 1.56 0 0 1-1.93-1.05l-.3-1a1.56 1.56 0 0 1 1-1.93l3.68-1.08a1.56 1.56 0 0 1 1.93 1Z" class="coloraec6d3 svgShape"/></g><g class="color000000 svgShape"><path fill="#ceceee" d="M256.71 225.25s-12.82-19.5-2.78-37l4.35 4.84-.54-10.36s8.47-9 20.58-10.22a26.43 26.43 0 0 1-5.38 22.32l-5-.72s1.43 2.73 5.92 4.66c-.02.03-7.11 15.41-17.15 26.48Z" class="colorcedbee svgShape"/><path fill="#167ffc" d="M257.73 231.71a49.66 49.66 0 0 1-.9-5.49 70.69 70.69 0 0 1-.3-13.38 52.5 52.5 0 0 1 3.9-16.71 38.79 38.79 0 0 1 11.72-15.45l.25.32c-11.47 9.05-14.74 22.33-15.47 31.87a70.82 70.82 0 0 0 .3 13.31 48.73 48.73 0 0 0 .9 5.45Z" class="color92b1dd svgShape"/><path fill="#167ffc" d="M257.64 231.23s0-18.62 22.11-20.5c.01 0-4.23 14.42-22.11 20.5Z" class="color92b1dd svgShape"/><path fill="#595bd4" d="m258.08 231.44-.28-.14a39.46 39.46 0 0 1 4.15-6.15 49.77 49.77 0 0 1 5.3-5.64 44 44 0 0 1 7.55-5.51l.16.27a46.72 46.72 0 0 0-12.76 11.09 40.88 40.88 0 0 0-4.12 6.08Z" class="color7394bc svgShape"/><path fill="#ceceee" d="M44 212.43c-8-4.93-4.8 2.33-4.8 2.33s-13-7.31-18.07-4.35S35 231.89 50.46 229.5l.3-.05v-.21c.14-1.61.56-12.24-6.76-16.81Zm-12.44 7.95c-2 0-3.63-.89-3.63-2s1.63-2 3.63-2 3.63.89 3.63 2-1.67 2-3.68 2Z" class="colorcedbee svgShape"/><path fill="#167ffc" d="M52.13 232.26h-.43c-.18-.47-.43-1.1-.78-1.84l-.45-.92a24.73 24.73 0 0 0-1.27-2.18 17.46 17.46 0 0 0-10-7.66l.1-.39a15.71 15.71 0 0 1 6.18 3.23 20.82 20.82 0 0 1 4 4.61 26.487 26.487 0 0 1 1.83 3.3c.4.76.69 1.39.82 1.85Z" class="color92b1dd svgShape"/><path fill="#ceceee" d="M123.7 229.83s-7.9 2-12.65-8.47c1.43.79 2.72 1.11 3-.08.39-2.06-2.81-4.38-4.65-5.52a26.41 26.41 0 0 1-.06-7.88c.87.77 1.91 1.37 2.59.67 1-1-.38-4.06-1.37-6a27.3 27.3 0 0 1 1.75-4.34 17.9 17.9 0 0 1 2.59 2.16c-.3 1.93-.35 3.75.26 4.58.75 1 1.62-.11 2.35-1.62a26.93 26.93 0 0 1 3.59 6.42c-1.14 1.85-2.9 5.09-2 6.19.74.89 2.16-.59 3.25-2a27.86 27.86 0 0 1 .54 3.59c1.11 13.15.81 12.3.81 12.3Z" class="colorcedbee svgShape"/><path fill="#167ffc" d="M125.3 231.39a18.39 18.39 0 0 1-5.55-5.81 36.7 36.7 0 0 1-3.49-7.27 52.92 52.92 0 0 1-2.35-8.85l.4-.06a51.93 51.93 0 0 0 2.33 8.78c1.56 4.3 4.36 10 8.88 12.87Z" class="color92b1dd svgShape"/></g><g class="color000000 svgShape"><path fill="#ceceee" d="M263.21 237.91H34.9a3.29 3.29 0 0 1-3.29-3.29 3.29 3.29 0 0 1 3.29-3.29h228.31a3.29 3.29 0 0 1 3.29 3.29 3.28 3.28 0 0 1-3.29 3.29Z" class="colorcedbee svgShape"/><path fill="#167ffc" d="M267.22 231.34a.92.92 0 0 1-.92.92H30.19a.92.92 0 0 1 0-1.84H266.3a.92.92 0 0 1 .92.92ZM42.18 236.88h85.98v2.29H42.18z" class="color92b1dd svgShape"/><path fill="#ceceee" d="M238.4 247.91h-92.48a5.51 5.51 0 0 1-5.52-5.51h103.51a5.51 5.51 0 0 1-5.51 5.51Z" class="colorcedbee svgShape"/><path fill="#167ffc" d="M139.6 241.45h105.03v1.61H139.6z" class="color92b1dd svgShape"/><ellipse cx="75.27" cy="245.84" fill="#ceceee" class="colorcedbee svgShape" rx="22.01" ry="2.78"/><ellipse cx="120.48" cy="244.37" fill="#ceceee" class="colorcedbee svgShape" rx="10.74" ry="2.2"/><ellipse cx="258.44" cy="243.65" fill="#ceceee" class="colorcedbee svgShape" rx="8.29" ry="2.42"/><ellipse cx="139.03" cy="251.16" fill="#ceceee" class="colorcedbee svgShape" rx="4.15" ry="1.14"/><ellipse cx="41.96" cy="244.23" fill="#ceceee" class="colorcedbee svgShape" rx="3.9" ry="1.17"/></g></svg>